<svg width="92" height="53" viewBox="0 0 92 53" fill="none" xmlns="http://www.w3.org/2000/svg">
<rect width="92" height="53" rx="26.5" fill="#F0FAFF"/>
<g clip-path="url(#clip0_1775_14196)">
<path d="M72.9645 21.3295C72.3916 21.3295 71.8684 21.1899 71.3949 20.9105C70.9214 20.6264 70.5426 20.2476 70.2585 19.7741C69.9792 19.3007 69.8395 18.7775 69.8395 18.2045C69.8395 17.6269 69.9792 17.1037 70.2585 16.6349C70.5426 16.1615 70.9214 15.785 71.3949 15.5057C71.8684 15.2216 72.3916 15.0795 72.9645 15.0795C73.5421 15.0795 74.0653 15.2216 74.5341 15.5057C75.0076 15.785 75.384 16.1615 75.6634 16.6349C75.9474 17.1037 76.0895 17.6269 76.0895 18.2045C76.0895 18.7775 75.9474 19.3007 75.6634 19.7741C75.384 20.2476 75.0076 20.6264 74.5341 20.9105C74.0653 21.1899 73.5421 21.3295 72.9645 21.3295Z" fill="#14AFE3"/>
<path d="M18.4347 34V19.4545H21.0696V25.6122H27.8097V19.4545H30.4517V34H27.8097V27.821H21.0696V34H18.4347ZM33.3175 34V19.4545H35.9524V31.7912H42.3587V34H33.3175ZM45.0877 19.4545L48.8732 30.9034H49.0224L52.8008 19.4545H55.6985L50.5707 34H47.3178L42.1971 19.4545H45.0877ZM69.5675 19.4545V34H67.2237L60.37 24.0923H60.2493V34H57.6143V19.4545H59.9723L66.8189 29.3693H66.9467V19.4545H69.5675Z" fill="#14AFE3"/>
</g>
<defs>
<clipPath id="clip0_1775_14196">
<rect width="60" height="43" fill="white" transform="translate(18 5)"/>
</clipPath>
</defs>
</svg>
