<svg width="636" height="559" viewBox="0 0 636 559" fill="none" xmlns="http://www.w3.org/2000/svg">
<path d="M312.987 274.574H535.372C549.005 138.587 445.055 81.1587 382.003 76.8984H312.987V274.574Z" fill="#EDFCFE"/>
<rect x="117.868" y="317.176" width="93.7255" height="92.0214" fill="#EDFCFE"/>
<g filter="url(#filter0_d_1213_9928)">
<rect x="368" y="85.999" width="220" height="110" rx="8.5205" fill="#FEFEFE"/>
</g>
<path d="M506.919 107.893C506.729 106.516 505.67 105.718 504.296 105.718C502.677 105.718 501.458 106.898 501.458 108.901C501.458 110.901 502.662 112.084 504.296 112.084C505.769 112.084 506.747 111.131 506.919 109.948L505.788 109.942C505.645 110.668 505.052 111.076 504.311 111.076C503.306 111.076 502.586 110.323 502.586 108.901C502.586 107.503 503.3 106.725 504.314 106.725C505.067 106.725 505.658 107.152 505.788 107.893H506.919ZM510.861 110.044C510.861 110.752 510.356 111.103 509.872 111.103C509.345 111.103 508.994 110.731 508.994 110.141V107.351H507.899V110.311C507.899 111.427 508.534 112.06 509.448 112.06C510.144 112.06 510.634 111.693 510.846 111.173H510.894V111.999H511.956V107.351H510.861V110.044ZM516.756 108.58C516.605 107.793 515.975 107.291 514.886 107.291C513.767 107.291 513.004 107.842 513.007 108.701C513.004 109.379 513.422 109.827 514.314 110.011L515.107 110.178C515.534 110.271 515.733 110.444 515.733 110.707C515.733 111.025 515.388 111.264 514.868 111.264C514.366 111.264 514.039 111.046 513.945 110.628L512.877 110.731C513.013 111.584 513.73 112.09 514.871 112.09C516.033 112.09 516.853 111.488 516.856 110.607C516.853 109.945 516.426 109.539 515.549 109.348L514.756 109.179C514.284 109.073 514.096 108.91 514.099 108.64C514.096 108.326 514.444 108.108 514.901 108.108C515.406 108.108 515.673 108.383 515.757 108.689L516.756 108.58ZM520.08 107.351H519.163V106.238H518.068V107.351H517.408V108.199H518.068V110.783C518.062 111.657 518.697 112.087 519.52 112.063C519.832 112.053 520.046 111.993 520.164 111.954L519.98 111.097C519.919 111.112 519.795 111.14 519.659 111.14C519.384 111.14 519.163 111.043 519.163 110.601V108.199H520.08V107.351ZM522.973 112.09C524.335 112.09 525.2 111.131 525.2 109.693C525.2 108.253 524.335 107.291 522.973 107.291C521.612 107.291 520.746 108.253 520.746 109.693C520.746 111.131 521.612 112.09 522.973 112.09ZM522.979 111.212C522.226 111.212 521.857 110.541 521.857 109.69C521.857 108.84 522.226 108.159 522.979 108.159C523.72 108.159 524.09 108.84 524.09 109.69C524.09 110.541 523.72 111.212 522.979 111.212ZM526.13 111.999H527.225V109.173C527.225 108.601 527.606 108.214 528.078 108.214C528.541 108.214 528.859 108.525 528.859 109.004V111.999H529.933V109.1C529.933 108.577 530.245 108.214 530.774 108.214C531.216 108.214 531.567 108.474 531.567 109.049V111.999H532.665V108.879C532.665 107.842 532.066 107.291 531.213 107.291C530.538 107.291 530.024 107.624 529.818 108.141H529.77C529.591 107.615 529.14 107.291 528.514 107.291C527.891 107.291 527.425 107.612 527.231 108.141H527.177V107.351H526.13V111.999ZM535.834 112.09C536.917 112.09 537.662 111.56 537.855 110.752L536.833 110.637C536.684 111.031 536.321 111.237 535.849 111.237C535.141 111.237 534.672 110.771 534.663 109.975H537.901V109.639C537.901 108.008 536.92 107.291 535.777 107.291C534.445 107.291 533.577 108.268 533.577 109.702C533.577 111.161 534.433 112.09 535.834 112.09ZM534.666 109.237C534.699 108.643 535.138 108.144 535.792 108.144C536.421 108.144 536.845 108.604 536.851 109.237H534.666ZM538.827 111.999H539.923V109.267C539.923 108.677 540.367 108.259 540.969 108.259C541.154 108.259 541.384 108.292 541.478 108.323V107.315C541.378 107.297 541.205 107.285 541.084 107.285C540.552 107.285 540.107 107.587 539.938 108.126H539.889V107.351H538.827V111.999ZM544.319 111.999H545.414V109.267C545.414 108.677 545.859 108.259 546.461 108.259C546.646 108.259 546.876 108.292 546.97 108.323V107.315C546.87 107.297 546.697 107.285 546.576 107.285C546.044 107.285 545.599 107.587 545.429 108.126H545.381V107.351H544.319V111.999ZM549.563 112.09C550.647 112.09 551.391 111.56 551.585 110.752L550.562 110.637C550.414 111.031 550.05 111.237 549.578 111.237C548.87 111.237 548.401 110.771 548.392 109.975H551.63V109.639C551.63 108.008 550.65 107.291 549.506 107.291C548.175 107.291 547.306 108.268 547.306 109.702C547.306 111.161 548.162 112.09 549.563 112.09ZM548.395 109.237C548.429 108.643 548.867 108.144 549.521 108.144C550.15 108.144 550.574 108.604 550.58 109.237H548.395ZM553.894 112.093C554.623 112.093 555.059 111.751 555.259 111.361H555.295V111.999H556.348V108.889C556.348 107.66 555.346 107.291 554.46 107.291C553.482 107.291 552.732 107.727 552.49 108.574L553.513 108.719C553.622 108.401 553.93 108.129 554.466 108.129C554.974 108.129 555.252 108.389 555.252 108.846V108.864C555.252 109.179 554.923 109.194 554.103 109.282C553.201 109.379 552.339 109.648 552.339 110.695C552.339 111.609 553.007 112.093 553.894 112.093ZM554.178 111.288C553.721 111.288 553.395 111.079 553.395 110.677C553.395 110.256 553.761 110.081 554.251 110.011C554.538 109.972 555.113 109.899 555.256 109.784V110.332C555.256 110.849 554.838 111.288 554.178 111.288ZM559.476 112.09C560.644 112.09 561.389 111.397 561.467 110.411H560.42C560.327 110.91 559.967 111.197 559.486 111.197C558.802 111.197 558.36 110.625 558.36 109.675C558.36 108.737 558.811 108.174 559.486 108.174C560.012 108.174 560.336 108.513 560.42 108.961H561.467C561.392 107.954 560.605 107.291 559.47 107.291C558.109 107.291 557.249 108.274 557.249 109.693C557.249 111.1 558.088 112.09 559.476 112.09ZM563.462 109.276C563.462 108.604 563.88 108.217 564.467 108.217C565.042 108.217 565.38 108.583 565.38 109.209V111.999H566.476V109.04C566.476 107.917 565.84 107.291 564.875 107.291C564.161 107.291 563.707 107.615 563.492 108.141H563.438V105.802H562.367V111.999H563.462V109.276Z" fill="#424250"/>
<path d="M504.795 145.899C505.242 145.899 505.65 145.792 506.02 145.579C506.393 145.362 506.692 145.072 506.915 144.709C507.138 144.342 507.25 143.936 507.25 143.489C507.25 143.042 507.147 142.641 506.94 142.284C506.737 141.924 506.457 141.639 506.1 141.429C505.747 141.219 505.347 141.114 504.9 141.114C504.577 141.114 504.272 141.181 503.985 141.314C503.702 141.447 503.455 141.629 503.245 141.859V140.879C503.245 140.592 503.313 140.326 503.45 140.079C503.59 139.829 503.783 139.629 504.03 139.479C504.277 139.326 504.558 139.249 504.875 139.249C505.142 139.249 505.39 139.312 505.62 139.439C505.85 139.562 506.037 139.727 506.18 139.934L506.845 139.344C506.612 139.041 506.323 138.809 505.98 138.649C505.64 138.486 505.272 138.404 504.875 138.404C504.382 138.404 503.945 138.514 503.565 138.734C503.185 138.954 502.885 139.257 502.665 139.644C502.448 140.031 502.34 140.476 502.34 140.979V143.374C502.34 143.854 502.448 144.286 502.665 144.669C502.885 145.049 503.18 145.349 503.55 145.569C503.923 145.789 504.338 145.899 504.795 145.899ZM504.795 145.039C504.508 145.039 504.247 144.969 504.01 144.829C503.777 144.689 503.59 144.502 503.45 144.269C503.313 144.032 503.245 143.772 503.245 143.489C503.245 143.202 503.315 142.942 503.455 142.709C503.595 142.472 503.782 142.284 504.015 142.144C504.252 142.004 504.513 141.934 504.8 141.934C505.087 141.934 505.347 142.004 505.58 142.144C505.817 142.284 506.003 142.472 506.14 142.709C506.28 142.942 506.35 143.202 506.35 143.489C506.35 143.776 506.28 144.037 506.14 144.274C506 144.507 505.812 144.694 505.575 144.834C505.342 144.971 505.082 145.039 504.795 145.039ZM510.801 145.899C511.261 145.899 511.667 145.807 512.021 145.624C512.377 145.441 512.656 145.184 512.856 144.854C513.059 144.521 513.161 144.134 513.161 143.694C513.161 143.321 513.081 142.977 512.921 142.664C512.761 142.351 512.526 142.094 512.216 141.894C512.469 141.717 512.659 141.497 512.786 141.234C512.912 140.971 512.976 140.682 512.976 140.369C512.976 139.962 512.882 139.612 512.696 139.319C512.509 139.026 512.252 138.799 511.926 138.639C511.599 138.479 511.224 138.399 510.801 138.399C510.377 138.399 510.002 138.479 509.676 138.639C509.349 138.799 509.092 139.026 508.906 139.319C508.719 139.612 508.626 139.962 508.626 140.369C508.626 140.679 508.691 140.967 508.821 141.234C508.951 141.497 509.141 141.716 509.391 141.889C509.074 142.092 508.837 142.351 508.681 142.664C508.527 142.974 508.451 143.317 508.451 143.694C508.451 144.134 508.551 144.519 508.751 144.849C508.951 145.179 509.227 145.437 509.581 145.624C509.934 145.807 510.341 145.899 510.801 145.899ZM510.801 141.479C510.437 141.479 510.141 141.387 509.911 141.204C509.684 141.017 509.571 140.739 509.571 140.369C509.571 139.999 509.684 139.722 509.911 139.539C510.141 139.352 510.437 139.259 510.801 139.259C511.167 139.259 511.464 139.352 511.691 139.539C511.917 139.722 512.031 139.999 512.031 140.369C512.031 140.739 511.917 141.017 511.691 141.204C511.464 141.387 511.167 141.479 510.801 141.479ZM510.801 145.049C510.381 145.049 510.041 144.934 509.781 144.704C509.521 144.471 509.391 144.134 509.391 143.694C509.391 143.251 509.519 142.914 509.776 142.684C510.036 142.451 510.377 142.334 510.801 142.334C511.227 142.334 511.569 142.451 511.826 142.684C512.086 142.914 512.216 143.251 512.216 143.694C512.216 144.134 512.084 144.471 511.821 144.704C511.561 144.934 511.221 145.049 510.801 145.049ZM514.619 145.749H515.599V144.769H514.619V145.749ZM520.264 145.749H521.164V144.424H521.914V143.579H521.164V141.554H520.264V143.579H517.964L520.339 138.549H519.329L516.954 143.579V144.424H520.264V145.749ZM524.811 141.999C525.141 141.999 525.441 141.919 525.711 141.759C525.985 141.596 526.203 141.379 526.366 141.109C526.53 140.836 526.611 140.532 526.611 140.199C526.611 139.866 526.53 139.564 526.366 139.294C526.203 139.021 525.985 138.804 525.711 138.644C525.441 138.481 525.141 138.399 524.811 138.399C524.491 138.399 524.195 138.481 523.921 138.644C523.648 138.807 523.428 139.026 523.261 139.299C523.095 139.572 523.011 139.872 523.011 140.199C523.011 140.532 523.093 140.836 523.256 141.109C523.42 141.379 523.636 141.596 523.906 141.759C524.18 141.919 524.481 141.999 524.811 141.999ZM523.911 145.749L530.521 139.149L529.921 138.549L523.311 145.149L523.911 145.749ZM524.811 141.214C524.538 141.214 524.3 141.114 524.096 140.914C523.896 140.711 523.796 140.472 523.796 140.199C523.796 139.922 523.896 139.684 524.096 139.484C524.3 139.284 524.538 139.184 524.811 139.184C525.088 139.184 525.326 139.284 525.526 139.484C525.726 139.684 525.826 139.922 525.826 140.199C525.826 140.472 525.726 140.711 525.526 140.914C525.326 141.114 525.088 141.214 524.811 141.214ZM529.021 145.899C529.351 145.899 529.651 145.819 529.921 145.659C530.195 145.496 530.413 145.279 530.576 145.009C530.74 144.736 530.821 144.432 530.821 144.099C530.821 143.766 530.74 143.464 530.576 143.194C530.413 142.921 530.195 142.704 529.921 142.544C529.651 142.381 529.351 142.299 529.021 142.299C528.701 142.299 528.405 142.381 528.131 142.544C527.858 142.707 527.638 142.926 527.471 143.199C527.305 143.472 527.221 143.772 527.221 144.099C527.221 144.432 527.301 144.736 527.461 145.009C527.625 145.279 527.843 145.496 528.116 145.659C528.39 145.819 528.691 145.899 529.021 145.899ZM529.021 145.114C528.748 145.114 528.51 145.014 528.306 144.814C528.106 144.611 528.006 144.372 528.006 144.099C528.006 143.822 528.106 143.584 528.306 143.384C528.51 143.184 528.748 143.084 529.021 143.084C529.298 143.084 529.536 143.184 529.736 143.384C529.936 143.584 530.036 143.822 530.036 144.099C530.036 144.372 529.936 144.611 529.736 144.814C529.536 145.014 529.298 145.114 529.021 145.114Z" fill="#353746"/>
<path d="M512.131 129.229H512.697L513.479 126.444H513.509L514.291 129.229H514.856L515.889 125.51H515.297L514.574 128.392H514.54L513.786 125.51H513.202L512.448 128.39H512.414L511.689 125.51H511.099L512.131 129.229ZM516.357 129.229H516.899V126.44H516.357V129.229ZM516.631 126.01C516.818 126.01 516.974 125.864 516.974 125.687C516.974 125.509 516.818 125.362 516.631 125.362C516.442 125.362 516.288 125.509 516.288 125.687C516.288 125.864 516.442 126.01 516.631 126.01ZM518.931 126.44H518.359V125.772H517.817V126.44H517.408V126.876H517.817V128.522C517.815 129.029 518.201 129.274 518.63 129.265C518.802 129.263 518.919 129.23 518.982 129.207L518.884 128.758C518.848 128.766 518.781 128.782 518.693 128.782C518.517 128.782 518.359 128.724 518.359 128.41V126.876H518.931V126.44ZM520.134 127.573C520.134 127.128 520.416 126.874 520.803 126.874C521.177 126.874 521.4 127.112 521.4 127.52V129.229H521.943V127.455C521.943 126.76 521.561 126.404 520.988 126.404C520.554 126.404 520.292 126.592 520.162 126.894H520.127V125.51H519.592V129.229H520.134V127.573ZM524.625 125.51H524.064V129.229H524.625V125.51ZM525.941 127.573C525.941 127.128 526.213 126.874 526.591 126.874C526.959 126.874 527.182 127.115 527.182 127.52V129.229H527.725V127.455C527.725 126.765 527.346 126.404 526.776 126.404C526.356 126.404 526.082 126.598 525.953 126.894H525.919V126.44H525.398V129.229H525.941V127.573ZM529.755 126.44H529.183V125.772H528.64V126.44H528.232V126.876H528.64V128.522C528.638 129.029 529.025 129.274 529.454 129.265C529.626 129.263 529.742 129.23 529.806 129.207L529.708 128.758C529.671 128.766 529.604 128.782 529.517 128.782C529.341 128.782 529.183 128.724 529.183 128.41V126.876H529.755V126.44ZM532.4 127.121C532.288 126.687 531.948 126.404 531.345 126.404C530.715 126.404 530.269 126.736 530.269 127.23C530.269 127.625 530.508 127.889 531.031 128.005L531.503 128.108C531.772 128.168 531.897 128.288 531.897 128.462C531.897 128.678 531.667 128.847 531.311 128.847C530.986 128.847 530.777 128.707 530.712 128.433L530.187 128.513C530.278 129.007 530.688 129.285 531.314 129.285C531.988 129.285 532.455 128.927 532.455 128.422C532.455 128.029 532.204 127.785 531.692 127.667L531.249 127.566C530.942 127.493 530.81 127.389 530.812 127.201C530.81 126.986 531.042 126.834 531.351 126.834C531.688 126.834 531.845 127.021 531.908 127.208L532.4 127.121ZM533.863 129.29C534.324 129.29 534.584 129.056 534.687 128.847H534.709V129.229H535.239V127.377C535.239 126.565 534.6 126.404 534.157 126.404C533.652 126.404 533.188 126.607 533.006 127.115L533.516 127.232C533.596 127.034 533.799 126.843 534.164 126.843C534.515 126.843 534.694 127.026 534.694 127.342V127.355C534.694 127.553 534.491 127.549 533.99 127.607C533.462 127.669 532.921 127.807 532.921 128.441C532.921 128.989 533.333 129.29 533.863 129.29ZM533.981 128.855C533.674 128.855 533.453 128.717 533.453 128.448C533.453 128.157 533.71 128.054 534.024 128.012C534.201 127.989 534.618 127.941 534.696 127.863V128.223C534.696 128.553 534.433 128.855 533.981 128.855ZM536.505 127.573C536.505 127.128 536.777 126.874 537.155 126.874C537.523 126.874 537.747 127.115 537.747 127.52V129.229H538.289V127.455C538.289 126.765 537.91 126.404 537.34 126.404C536.921 126.404 536.646 126.598 536.518 126.894H536.483V126.44H535.962V129.229H536.505V127.573ZM540.219 129.285C540.827 129.285 541.258 128.985 541.381 128.531L540.867 128.439C540.769 128.702 540.533 128.836 540.225 128.836C539.76 128.836 539.448 128.535 539.433 127.998H541.416V127.805C541.416 126.798 540.813 126.404 540.181 126.404C539.404 126.404 538.892 126.996 538.892 127.852C538.892 128.718 539.397 129.285 540.219 129.285ZM539.435 127.591C539.457 127.195 539.744 126.852 540.185 126.852C540.606 126.852 540.882 127.164 540.884 127.591H539.435Z" fill="#98A2A6"/>
<circle cx="504.177" cy="127.636" r="2.55615" fill="#090955"/>
<path d="M501.929 175.009H506.714V174.159H503.299L505.619 172.074C505.865 171.854 506.069 171.647 506.229 171.454C506.392 171.257 506.514 171.044 506.594 170.814C506.674 170.584 506.714 170.312 506.714 169.999C506.714 169.555 506.61 169.159 506.404 168.809C506.2 168.455 505.922 168.177 505.569 167.974C505.215 167.767 504.815 167.664 504.369 167.664C503.909 167.664 503.497 167.764 503.134 167.964C502.77 168.16 502.484 168.434 502.274 168.784C502.067 169.13 501.964 169.53 501.964 169.984H502.874C502.87 169.72 502.932 169.479 503.059 169.259C503.189 169.035 503.365 168.855 503.589 168.719C503.812 168.582 504.067 168.514 504.354 168.514C504.63 168.514 504.877 168.579 505.094 168.709C505.314 168.839 505.487 169.015 505.614 169.239C505.74 169.462 505.804 169.712 505.804 169.989C505.804 170.215 505.757 170.437 505.664 170.654C505.574 170.87 505.395 171.097 505.129 171.334L501.934 174.209L501.929 175.009ZM510.16 175.164C510.62 175.164 511.027 175.072 511.38 174.889C511.737 174.705 512.015 174.449 512.215 174.119C512.418 173.785 512.52 173.399 512.52 172.959C512.52 172.585 512.44 172.242 512.28 171.929C512.12 171.615 511.885 171.359 511.575 171.159C511.828 170.982 512.018 170.762 512.145 170.499C512.272 170.235 512.335 169.947 512.335 169.634C512.335 169.227 512.242 168.877 512.055 168.584C511.868 168.29 511.612 168.064 511.285 167.904C510.958 167.744 510.583 167.664 510.16 167.664C509.737 167.664 509.362 167.744 509.035 167.904C508.708 168.064 508.452 168.29 508.265 168.584C508.078 168.877 507.985 169.227 507.985 169.634C507.985 169.944 508.05 170.232 508.18 170.499C508.31 170.762 508.5 170.98 508.75 171.154C508.433 171.357 508.197 171.615 508.04 171.929C507.887 172.239 507.81 172.582 507.81 172.959C507.81 173.399 507.91 173.784 508.11 174.114C508.31 174.444 508.587 174.702 508.94 174.889C509.293 175.072 509.7 175.164 510.16 175.164ZM510.16 170.744C509.797 170.744 509.5 170.652 509.27 170.469C509.043 170.282 508.93 170.004 508.93 169.634C508.93 169.264 509.043 168.987 509.27 168.804C509.5 168.617 509.797 168.524 510.16 168.524C510.527 168.524 510.823 168.617 511.05 168.804C511.277 168.987 511.39 169.264 511.39 169.634C511.39 170.004 511.277 170.282 511.05 170.469C510.823 170.652 510.527 170.744 510.16 170.744ZM510.16 174.314C509.74 174.314 509.4 174.199 509.14 173.969C508.88 173.735 508.75 173.399 508.75 172.959C508.75 172.515 508.878 172.179 509.135 171.949C509.395 171.715 509.737 171.599 510.16 171.599C510.587 171.599 510.928 171.715 511.185 171.949C511.445 172.179 511.575 172.515 511.575 172.959C511.575 173.399 511.443 173.735 511.18 173.969C510.92 174.199 510.58 174.314 510.16 174.314ZM513.978 175.014H514.958V174.034H513.978V175.014ZM519.623 175.014H520.523V173.689H521.273V172.844H520.523V170.819H519.623V172.844H517.323L519.698 167.814H518.688L516.313 172.844V173.689H519.623V175.014ZM524.17 171.264C524.5 171.264 524.8 171.184 525.07 171.024C525.344 170.86 525.562 170.644 525.725 170.374C525.889 170.1 525.97 169.797 525.97 169.464C525.97 169.13 525.889 168.829 525.725 168.559C525.562 168.285 525.344 168.069 525.07 167.909C524.8 167.745 524.5 167.664 524.17 167.664C523.85 167.664 523.554 167.745 523.28 167.909C523.007 168.072 522.787 168.29 522.62 168.564C522.454 168.837 522.37 169.137 522.37 169.464C522.37 169.797 522.452 170.1 522.615 170.374C522.779 170.644 522.995 170.86 523.265 171.024C523.539 171.184 523.84 171.264 524.17 171.264ZM523.27 175.014L529.88 168.414L529.28 167.814L522.67 174.414L523.27 175.014ZM524.17 170.479C523.897 170.479 523.659 170.379 523.455 170.179C523.255 169.975 523.155 169.737 523.155 169.464C523.155 169.187 523.255 168.949 523.455 168.749C523.659 168.549 523.897 168.449 524.17 168.449C524.447 168.449 524.685 168.549 524.885 168.749C525.085 168.949 525.185 169.187 525.185 169.464C525.185 169.737 525.085 169.975 524.885 170.179C524.685 170.379 524.447 170.479 524.17 170.479ZM528.38 175.164C528.71 175.164 529.01 175.084 529.28 174.924C529.554 174.76 529.772 174.544 529.935 174.274C530.099 174 530.18 173.697 530.18 173.364C530.18 173.03 530.099 172.729 529.935 172.459C529.772 172.185 529.554 171.969 529.28 171.809C529.01 171.645 528.71 171.564 528.38 171.564C528.06 171.564 527.764 171.645 527.49 171.809C527.217 171.972 526.997 172.19 526.83 172.464C526.664 172.737 526.58 173.037 526.58 173.364C526.58 173.697 526.66 174 526.82 174.274C526.984 174.544 527.202 174.76 527.475 174.924C527.749 175.084 528.05 175.164 528.38 175.164ZM528.38 174.379C528.107 174.379 527.869 174.279 527.665 174.079C527.465 173.875 527.365 173.637 527.365 173.364C527.365 173.087 527.465 172.849 527.665 172.649C527.869 172.449 528.107 172.349 528.38 172.349C528.657 172.349 528.895 172.449 529.095 172.649C529.295 172.849 529.395 173.087 529.395 173.364C529.395 173.637 529.295 173.875 529.095 174.079C528.895 174.279 528.657 174.379 528.38 174.379Z" fill="#353746"/>
<path d="M511.279 158.494H511.845L512.627 155.709H512.656L513.439 158.494H514.004L515.037 154.776H514.445L513.722 157.657H513.688L512.934 154.776H512.35L511.596 157.655H511.562L510.837 154.776H510.247L511.279 158.494ZM515.504 158.494H516.047V155.706H515.504V158.494ZM515.779 155.275C515.966 155.275 516.122 155.13 516.122 154.952C516.122 154.774 515.966 154.627 515.779 154.627C515.59 154.627 515.435 154.774 515.435 154.952C515.435 155.13 515.59 155.275 515.779 155.275ZM518.079 155.706H517.507V155.038H516.965V155.706H516.556V156.141H516.965V157.788C516.963 158.294 517.349 158.54 517.778 158.53C517.95 158.529 518.067 158.496 518.13 158.472L518.032 158.024C517.996 158.031 517.929 158.048 517.841 158.048C517.665 158.048 517.507 157.989 517.507 157.675V156.141H518.079V155.706ZM519.282 156.838C519.282 156.394 519.564 156.14 519.95 156.14C520.324 156.14 520.548 156.377 520.548 156.786V158.494H521.091V156.72C521.091 156.025 520.709 155.669 520.136 155.669C519.702 155.669 519.44 155.858 519.31 156.159H519.275V154.776H518.74V158.494H519.282V156.838ZM522.99 158.55C523.776 158.55 524.289 157.975 524.289 157.113C524.289 156.245 523.776 155.669 522.99 155.669C522.203 155.669 521.69 156.245 521.69 157.113C521.69 157.975 522.203 158.55 522.99 158.55ZM522.991 158.095C522.478 158.095 522.238 157.646 522.238 157.111C522.238 156.577 522.478 156.123 522.991 156.123C523.502 156.123 523.741 156.577 523.741 157.111C523.741 157.646 523.502 158.095 522.991 158.095ZM526.662 157.338C526.664 157.812 526.311 158.037 526.006 158.037C525.671 158.037 525.438 157.793 525.438 157.414V155.706H524.895V157.479C524.895 158.171 525.275 158.53 525.81 158.53C526.23 158.53 526.515 158.309 526.644 158.011H526.673V158.494H527.206V155.706H526.662V157.338ZM529.237 155.706H528.666V155.038H528.123V155.706H527.714V156.141H528.123V157.788C528.121 158.294 528.508 158.54 528.936 158.53C529.109 158.529 529.225 158.496 529.288 158.472L529.19 158.024C529.154 158.031 529.087 158.048 529 158.048C528.823 158.048 528.666 157.989 528.666 157.675V156.141H529.237V155.706ZM531.795 154.776H531.234V158.494H531.795V154.776ZM533.112 156.838C533.112 156.394 533.384 156.14 533.762 156.14C534.13 156.14 534.353 156.381 534.353 156.786V158.494H534.896V156.72C534.896 156.031 534.517 155.669 533.947 155.669C533.527 155.669 533.253 155.864 533.124 156.159H533.09V155.706H532.569V158.494H533.112V156.838ZM536.926 155.706H536.354V155.038H535.811V155.706H535.403V156.141H535.811V157.788C535.809 158.294 536.196 158.54 536.624 158.53C536.797 158.529 536.913 158.496 536.977 158.472L536.879 158.024C536.842 158.031 536.775 158.048 536.688 158.048C536.512 158.048 536.354 157.989 536.354 157.675V156.141H536.926V155.706ZM539.571 156.386C539.458 155.953 539.119 155.669 538.516 155.669C537.886 155.669 537.44 156.002 537.44 156.495C537.44 156.891 537.679 157.154 538.202 157.271L538.674 157.374C538.943 157.434 539.068 157.554 539.068 157.728C539.068 157.944 538.838 158.113 538.482 158.113C538.157 158.113 537.948 157.973 537.883 157.699L537.358 157.779C537.449 158.273 537.859 158.55 538.485 158.55C539.159 158.55 539.625 158.193 539.625 157.688C539.625 157.294 539.375 157.051 538.863 156.933L538.42 156.831C538.113 156.759 537.981 156.655 537.982 156.466C537.981 156.252 538.213 156.1 538.522 156.1C538.859 156.1 539.015 156.287 539.079 156.474L539.571 156.386ZM541.034 158.556C541.495 158.556 541.754 158.322 541.858 158.113H541.88V158.494H542.41V156.642C542.41 155.831 541.771 155.669 541.328 155.669C540.823 155.669 540.358 155.873 540.177 156.381L540.687 156.497C540.767 156.299 540.97 156.109 541.335 156.109C541.685 156.109 541.865 156.292 541.865 156.608V156.621C541.865 156.818 541.662 156.815 541.161 156.873C540.633 156.935 540.092 157.073 540.092 157.706C540.092 158.255 540.504 158.556 541.034 158.556ZM541.152 158.12C540.845 158.12 540.623 157.982 540.623 157.713C540.623 157.423 540.881 157.32 541.195 157.278C541.371 157.254 541.789 157.207 541.867 157.129V157.488C541.867 157.819 541.604 158.12 541.152 158.12ZM543.676 156.838C543.676 156.394 543.948 156.14 544.326 156.14C544.694 156.14 544.917 156.381 544.917 156.786V158.494H545.46V156.72C545.46 156.031 545.081 155.669 544.511 155.669C544.091 155.669 543.817 155.864 543.688 156.159H543.654V155.706H543.133V158.494H543.676V156.838ZM547.39 158.55C547.998 158.55 548.429 158.251 548.552 157.797L548.038 157.704C547.94 157.968 547.704 158.102 547.396 158.102C546.931 158.102 546.619 157.801 546.604 157.263H548.586V157.071C548.586 156.063 547.984 155.669 547.352 155.669C546.575 155.669 546.063 156.261 546.063 157.118C546.063 157.984 546.568 158.55 547.39 158.55ZM546.606 156.857C546.628 156.461 546.914 156.118 547.356 156.118C547.777 156.118 548.053 156.43 548.055 156.857H546.606Z" fill="#98A2A6"/>
<circle cx="503.326" cy="156.902" r="2.55615" fill="#E9F8FB"/>
<path d="M421.765 159.865H426.659V158.903H423.312V158.849L424.79 157.302C426.151 155.926 426.54 155.269 426.54 154.437C426.54 153.242 425.567 152.327 424.165 152.327C422.774 152.327 421.758 153.228 421.758 154.586H422.829C422.825 153.787 423.341 153.264 424.143 153.264C424.898 153.264 425.472 153.729 425.472 154.47C425.472 155.127 425.08 155.599 424.281 156.445L421.765 159.052V159.865ZM430.624 159.989C432.342 159.989 433.348 158.587 433.348 156.151C433.348 153.733 432.327 152.327 430.624 152.327C428.918 152.327 427.901 153.729 427.898 156.151C427.898 158.584 428.903 159.985 430.624 159.989ZM430.624 159.019C429.619 159.019 429.012 158.01 429.012 156.151C429.016 154.299 429.622 153.279 430.624 153.279C431.623 153.279 432.233 154.299 432.233 156.151C432.233 158.01 431.627 159.019 430.624 159.019ZM435.783 158.849H434.737L434.701 159.255C434.617 160.239 434.385 161.23 434.287 161.681H435.057C435.231 161.205 435.616 160.116 435.729 159.244L435.783 158.849ZM439.636 159.967C441.132 159.967 442.2 158.91 442.196 157.462C442.2 156.024 441.198 154.978 439.843 154.978C439.291 154.978 438.779 155.189 438.489 155.472H438.445L438.681 153.391H441.837V152.429H437.748L437.331 156.176L438.358 156.329C438.638 156.078 439.139 155.908 439.589 155.908C440.471 155.915 441.11 156.576 441.11 157.483C441.11 158.377 440.49 159.023 439.636 159.023C438.917 159.023 438.347 158.565 438.289 157.926H437.2C437.244 159.11 438.271 159.967 439.636 159.967ZM443.366 158.413H446.892V159.865H447.963V158.413H448.947V157.462H447.963V152.429H446.579L443.366 157.505V158.413ZM446.899 157.462H444.543V157.403L446.841 153.765H446.899V157.462ZM452.801 159.967C454.319 159.967 455.433 159.059 455.43 157.825C455.433 156.884 454.863 156.209 453.876 156.056V155.998C454.653 155.799 455.157 155.189 455.154 154.354C455.157 153.261 454.261 152.327 452.83 152.327C451.465 152.327 450.368 153.152 450.332 154.361H451.418C451.443 153.678 452.086 153.264 452.816 153.264C453.574 153.264 454.072 153.725 454.068 154.412C454.072 155.131 453.494 155.603 452.67 155.603H452.042V156.518H452.67C453.701 156.518 454.297 157.04 454.297 157.788C454.297 158.511 453.669 159.001 452.794 159.001C451.988 159.001 451.36 158.587 451.316 157.926H450.176C450.223 159.139 451.298 159.967 452.801 159.967Z" fill="#353746"/>
<path d="M410.796 172.686C411.053 172.686 411.283 172.643 411.484 172.558C411.686 172.473 411.847 172.35 411.964 172.19C412.082 172.028 412.141 171.833 412.141 171.605C412.141 171.431 412.108 171.287 412.043 171.173C411.98 171.057 411.9 170.964 411.803 170.894C411.708 170.823 411.61 170.768 411.509 170.731C411.409 170.691 411.321 170.662 411.246 170.641L410.525 170.429C410.43 170.402 410.331 170.367 410.229 170.324C410.128 170.282 410.043 170.223 409.973 170.148C409.905 170.073 409.871 169.973 409.871 169.849C409.871 169.726 409.908 169.617 409.983 169.522C410.058 169.424 410.16 169.349 410.29 169.294C410.419 169.238 410.566 169.211 410.73 169.212C410.987 169.214 411.208 169.286 411.392 169.43C411.577 169.571 411.689 169.761 411.727 170L412.12 169.928C412.061 169.597 411.906 169.337 411.657 169.146C411.409 168.953 411.1 168.856 410.732 168.854C410.49 168.853 410.275 168.894 410.085 168.977C409.896 169.059 409.747 169.176 409.638 169.327C409.529 169.477 409.475 169.656 409.475 169.864C409.475 170.111 409.549 170.304 409.697 170.442C409.847 170.578 410.034 170.679 410.259 170.746L411.192 171.025C411.277 171.05 411.364 171.085 411.45 171.129C411.537 171.174 411.61 171.235 411.668 171.313C411.727 171.392 411.757 171.494 411.757 171.62C411.757 171.765 411.716 171.89 411.634 171.996C411.553 172.102 411.44 172.183 411.297 172.241C411.156 172.298 410.994 172.326 410.811 172.326C410.537 172.326 410.301 172.258 410.103 172.124C409.906 171.987 409.776 171.8 409.715 171.561L409.331 171.625C409.374 171.843 409.462 172.032 409.595 172.19C409.728 172.349 409.896 172.471 410.101 172.558C410.307 172.643 410.539 172.686 410.796 172.686ZM413.724 172.678C413.922 172.678 414.1 172.641 414.258 172.566C414.418 172.489 414.55 172.376 414.652 172.226V172.609H414.989V169.849H414.613V171.321C414.613 171.633 414.544 171.877 414.404 172.055C414.264 172.232 414.061 172.321 413.796 172.321C413.603 172.321 413.448 172.275 413.33 172.182C413.213 172.089 413.127 171.962 413.075 171.802C413.022 171.641 412.995 171.46 412.995 171.257V169.849H412.617V171.367C412.617 171.522 412.636 171.677 412.673 171.832C412.713 171.987 412.775 172.129 412.86 172.257C412.945 172.384 413.058 172.487 413.2 172.563C413.343 172.64 413.518 172.678 413.724 172.678ZM416.849 172.686C417.123 172.686 417.358 172.622 417.554 172.494C417.752 172.365 417.903 172.177 418.007 171.932L417.628 171.82C417.489 172.157 417.229 172.326 416.849 172.326C416.552 172.326 416.329 172.226 416.179 172.027C416.029 171.825 415.952 171.56 415.949 171.229C415.952 170.907 416.027 170.644 416.171 170.439C416.318 170.235 416.544 170.132 416.849 170.132C417.029 170.132 417.19 170.178 417.329 170.27C417.471 170.361 417.574 170.489 417.639 170.654L418.007 170.536C417.93 170.299 417.788 170.113 417.58 169.977C417.374 169.84 417.131 169.772 416.851 169.772C416.577 169.772 416.344 169.833 416.151 169.956C415.958 170.077 415.811 170.247 415.709 170.467C415.607 170.685 415.554 170.939 415.55 171.229C415.554 171.512 415.605 171.763 415.704 171.983C415.804 172.203 415.951 172.375 416.143 172.499C416.336 172.624 416.571 172.686 416.849 172.686ZM419.605 172.686C419.879 172.686 420.114 172.622 420.31 172.494C420.508 172.365 420.659 172.177 420.763 171.932L420.384 171.82C420.245 172.157 419.985 172.326 419.605 172.326C419.308 172.326 419.085 172.226 418.935 172.027C418.785 171.825 418.708 171.56 418.705 171.229C418.708 170.907 418.782 170.644 418.927 170.439C419.074 170.235 419.3 170.132 419.605 170.132C419.785 170.132 419.945 170.178 420.085 170.27C420.227 170.361 420.33 170.489 420.395 170.654L420.763 170.536C420.686 170.299 420.544 170.113 420.336 169.977C420.13 169.84 419.887 169.772 419.607 169.772C419.333 169.772 419.099 169.833 418.907 169.956C418.714 170.077 418.567 170.247 418.465 170.467C418.362 170.685 418.31 170.939 418.306 171.229C418.31 171.512 418.361 171.763 418.46 171.983C418.56 172.203 418.707 172.375 418.899 172.499C419.092 172.624 419.327 172.686 419.605 172.686ZM422.384 172.686C422.651 172.686 422.89 172.62 423.102 172.489C423.315 172.358 423.476 172.171 423.585 171.929L423.235 171.794C423.059 172.148 422.77 172.326 422.368 172.326C422.092 172.326 421.876 172.24 421.719 172.067C421.564 171.895 421.479 171.651 421.463 171.334H423.639C423.652 170.846 423.546 170.465 423.319 170.189C423.094 169.911 422.777 169.772 422.368 169.772C422.102 169.772 421.871 169.832 421.675 169.951C421.481 170.07 421.33 170.24 421.223 170.46C421.116 170.679 421.062 170.94 421.062 171.242C421.062 171.533 421.116 171.787 421.223 172.004C421.332 172.22 421.485 172.388 421.683 172.507C421.883 172.626 422.116 172.686 422.384 172.686ZM422.378 170.117C422.898 170.117 423.187 170.418 423.245 171.019H421.471C421.5 170.728 421.592 170.505 421.747 170.35C421.902 170.195 422.113 170.117 422.378 170.117ZM425.236 172.684C425.575 172.684 425.841 172.609 426.034 172.461C426.228 172.311 426.325 172.106 426.325 171.845C426.325 171.702 426.294 171.582 426.233 171.485C426.173 171.388 426.07 171.303 425.924 171.232C425.779 171.16 425.579 171.092 425.325 171.027C425.109 170.973 424.942 170.922 424.824 170.876C424.709 170.83 424.628 170.782 424.584 170.731C424.54 170.678 424.518 170.615 424.518 170.541C424.518 170.41 424.579 170.305 424.702 170.227C424.824 170.149 424.984 170.111 425.18 170.115C425.388 170.118 425.559 170.167 425.694 170.263C425.828 170.357 425.909 170.484 425.936 170.646L426.32 170.577C426.301 170.417 426.241 170.276 426.141 170.155C426.04 170.034 425.907 169.941 425.742 169.874C425.579 169.806 425.393 169.772 425.185 169.772C424.977 169.772 424.794 169.805 424.635 169.872C424.479 169.936 424.356 170.029 424.267 170.148C424.18 170.265 424.137 170.403 424.137 170.559C424.137 170.687 424.166 170.796 424.224 170.887C424.283 170.975 424.385 171.054 424.528 171.124C424.671 171.192 424.867 171.261 425.116 171.329C425.349 171.392 425.524 171.446 425.64 171.492C425.757 171.538 425.836 171.589 425.875 171.643C425.914 171.696 425.934 171.765 425.934 171.85C425.934 172 425.873 172.119 425.752 172.208C425.631 172.297 425.466 172.341 425.256 172.341C425.042 172.341 424.861 172.295 424.715 172.203C424.568 172.109 424.475 171.984 424.436 171.827L424.052 171.891C424.1 172.14 424.228 172.334 424.436 172.474C424.646 172.614 424.912 172.684 425.236 172.684ZM427.922 172.684C428.261 172.684 428.527 172.609 428.719 172.461C428.914 172.311 429.011 172.106 429.011 171.845C429.011 171.702 428.98 171.582 428.919 171.485C428.859 171.388 428.756 171.303 428.61 171.232C428.465 171.16 428.265 171.092 428.011 171.027C427.795 170.973 427.628 170.922 427.51 170.876C427.395 170.83 427.314 170.782 427.27 170.731C427.226 170.678 427.204 170.615 427.204 170.541C427.204 170.41 427.265 170.305 427.388 170.227C427.51 170.149 427.67 170.111 427.866 170.115C428.074 170.118 428.245 170.167 428.379 170.263C428.514 170.357 428.595 170.484 428.622 170.646L429.006 170.577C428.987 170.417 428.927 170.276 428.827 170.155C428.726 170.034 428.593 169.941 428.428 169.874C428.264 169.806 428.079 169.772 427.871 169.772C427.663 169.772 427.48 169.805 427.321 169.872C427.164 169.936 427.042 170.029 426.953 170.148C426.866 170.265 426.823 170.403 426.823 170.559C426.823 170.687 426.852 170.796 426.91 170.887C426.969 170.975 427.071 171.054 427.214 171.124C427.357 171.192 427.553 171.261 427.802 171.329C428.035 171.392 428.21 171.446 428.326 171.492C428.443 171.538 428.522 171.589 428.561 171.643C428.6 171.696 428.62 171.765 428.62 171.85C428.62 172 428.559 172.119 428.438 172.208C428.317 172.297 428.152 172.341 427.942 172.341C427.728 172.341 427.547 172.295 427.4 172.203C427.254 172.109 427.161 171.984 427.122 171.827L426.738 171.891C426.786 172.14 426.914 172.334 427.122 172.474C427.331 172.614 427.598 172.684 427.922 172.684ZM429.851 172.609H430.227V170.171H430.981V169.849H430.227V169.603C430.227 169.314 430.369 169.169 430.654 169.169H430.981V168.852H430.628C430.523 168.852 430.416 168.863 430.309 168.885C430.201 168.907 430.106 168.963 430.023 169.054C429.948 169.136 429.9 169.228 429.879 169.332C429.861 169.435 429.851 169.539 429.851 169.644V169.849H429.373V170.171H429.851V172.609ZM432.446 172.678C432.643 172.678 432.821 172.641 432.98 172.566C433.14 172.489 433.271 172.376 433.374 172.226V172.609H433.711V169.849H433.335V171.321C433.335 171.633 433.265 171.877 433.126 172.055C432.986 172.232 432.783 172.321 432.517 172.321C432.325 172.321 432.17 172.275 432.052 172.182C431.935 172.089 431.849 171.962 431.796 171.802C431.744 171.641 431.717 171.46 431.717 171.257V169.849H431.339V171.367C431.339 171.522 431.358 171.677 431.395 171.832C431.434 171.987 431.497 172.129 431.582 172.257C431.667 172.384 431.78 172.487 431.922 172.563C432.065 172.64 432.24 172.678 432.446 172.678ZM434.477 172.609H434.852V168.852H434.477V172.609ZM437.92 172.686C438.178 172.686 438.407 172.643 438.608 172.558C438.811 172.473 438.971 172.35 439.088 172.19C439.206 172.028 439.265 171.833 439.265 171.605C439.265 171.431 439.232 171.287 439.168 171.173C439.105 171.057 439.024 170.964 438.927 170.894C438.832 170.823 438.734 170.768 438.633 170.731C438.533 170.691 438.445 170.662 438.37 170.641L437.649 170.429C437.554 170.402 437.455 170.367 437.353 170.324C437.252 170.282 437.167 170.223 437.097 170.148C437.029 170.073 436.995 169.973 436.995 169.849C436.995 169.726 437.032 169.617 437.107 169.522C437.182 169.424 437.285 169.349 437.414 169.294C437.544 169.238 437.69 169.211 437.854 169.212C438.111 169.214 438.332 169.286 438.516 169.43C438.702 169.571 438.813 169.761 438.851 170L439.244 169.928C439.185 169.597 439.03 169.337 438.782 169.146C438.533 168.953 438.224 168.856 437.856 168.854C437.614 168.853 437.399 168.894 437.21 168.977C437.02 169.059 436.871 169.176 436.762 169.327C436.653 169.477 436.599 169.656 436.599 169.864C436.599 170.111 436.673 170.304 436.821 170.442C436.971 170.578 437.158 170.679 437.383 170.746L438.316 171.025C438.402 171.05 438.488 171.085 438.575 171.129C438.661 171.174 438.734 171.235 438.792 171.313C438.851 171.392 438.881 171.494 438.881 171.62C438.881 171.765 438.84 171.89 438.759 171.996C438.677 172.102 438.564 172.183 438.421 172.241C438.28 172.298 438.118 172.326 437.936 172.326C437.661 172.326 437.425 172.258 437.227 172.124C437.03 171.987 436.9 171.8 436.839 171.561L436.456 171.625C436.498 171.843 436.586 172.032 436.719 172.19C436.852 172.349 437.02 172.471 437.225 172.558C437.431 172.643 437.663 172.686 437.92 172.686ZM440.582 172.686C441.064 172.686 441.415 172.508 441.633 172.152V172.609H441.968V170.894C441.968 170.792 441.963 170.691 441.952 170.593C441.942 170.494 441.92 170.404 441.886 170.324C441.813 170.145 441.687 170.009 441.51 169.915C441.335 169.82 441.121 169.772 440.869 169.772C440.565 169.772 440.318 169.84 440.127 169.977C439.936 170.113 439.809 170.305 439.744 170.552L440.109 170.659C440.162 170.475 440.253 170.34 440.383 170.255C440.514 170.17 440.674 170.127 440.863 170.127C441.126 170.127 441.313 170.189 441.426 170.311C441.538 170.432 441.596 170.617 441.6 170.866C441.477 170.883 441.341 170.901 441.193 170.92C441.047 170.939 440.899 170.96 440.751 170.984C440.603 171.008 440.466 171.035 440.342 171.065C440.136 171.12 439.967 171.211 439.836 171.339C439.705 171.465 439.639 171.641 439.639 171.868C439.639 172.015 439.674 172.15 439.744 172.275C439.814 172.399 439.918 172.499 440.058 172.574C440.2 172.649 440.374 172.686 440.582 172.686ZM440.626 172.361C440.477 172.361 440.358 172.338 440.268 172.29C440.179 172.24 440.114 172.178 440.074 172.103C440.034 172.027 440.015 171.948 440.015 171.868C440.015 171.718 440.065 171.606 440.166 171.531C440.266 171.456 440.375 171.401 440.493 171.367C440.644 171.326 440.821 171.293 441.022 171.267C441.223 171.242 441.414 171.218 441.594 171.196C441.594 171.259 441.592 171.331 441.587 171.413C441.583 171.493 441.574 171.567 441.559 171.635C441.523 171.843 441.424 172.016 441.262 172.154C441.102 172.292 440.89 172.361 440.626 172.361ZM442.684 172.609H443.06V168.852H442.684V172.609ZM444.994 172.686C445.262 172.686 445.501 172.62 445.713 172.489C445.926 172.358 446.087 172.171 446.196 171.929L445.846 171.794C445.67 172.148 445.381 172.326 444.979 172.326C444.703 172.326 444.487 172.24 444.33 172.067C444.175 171.895 444.09 171.651 444.074 171.334H446.25C446.263 170.846 446.157 170.465 445.93 170.189C445.705 169.911 445.388 169.772 444.979 169.772C444.713 169.772 444.482 169.832 444.286 169.951C444.092 170.07 443.941 170.24 443.834 170.46C443.727 170.679 443.673 170.94 443.673 171.242C443.673 171.533 443.727 171.787 443.834 172.004C443.943 172.22 444.096 172.388 444.294 172.507C444.493 172.626 444.727 172.686 444.994 172.686ZM444.989 170.117C445.509 170.117 445.798 170.418 445.856 171.019H444.082C444.111 170.728 444.203 170.505 444.358 170.35C444.513 170.195 444.724 170.117 444.989 170.117ZM447.847 172.684C448.186 172.684 448.452 172.609 448.644 172.461C448.839 172.311 448.936 172.106 448.936 171.845C448.936 171.702 448.905 171.582 448.844 171.485C448.784 171.388 448.681 171.303 448.535 171.232C448.39 171.16 448.19 171.092 447.936 171.027C447.72 170.973 447.553 170.922 447.435 170.876C447.32 170.83 447.239 170.782 447.195 170.731C447.151 170.678 447.129 170.615 447.129 170.541C447.129 170.41 447.19 170.305 447.313 170.227C447.435 170.149 447.595 170.111 447.791 170.115C447.999 170.118 448.17 170.167 448.304 170.263C448.439 170.357 448.52 170.484 448.547 170.646L448.931 170.577C448.912 170.417 448.852 170.276 448.752 170.155C448.651 170.034 448.518 169.941 448.353 169.874C448.189 169.806 448.004 169.772 447.796 169.772C447.588 169.772 447.405 169.805 447.246 169.872C447.089 169.936 446.967 170.029 446.878 170.148C446.791 170.265 446.748 170.403 446.748 170.559C446.748 170.687 446.777 170.796 446.835 170.887C446.894 170.975 446.996 171.054 447.139 171.124C447.282 171.192 447.478 171.261 447.727 171.329C447.96 171.392 448.135 171.446 448.251 171.492C448.368 171.538 448.447 171.589 448.486 171.643C448.525 171.696 448.545 171.765 448.545 171.85C448.545 172 448.484 172.119 448.363 172.208C448.242 172.297 448.077 172.341 447.867 172.341C447.653 172.341 447.472 172.295 447.325 172.203C447.179 172.109 447.086 171.984 447.047 171.827L446.663 171.891C446.711 172.14 446.839 172.334 447.047 172.474C447.256 172.614 447.523 172.684 447.847 172.684ZM450.577 172.609H450.953V168.929H450.577V172.609ZM451.717 172.609H452.095V171.137C452.095 170.825 452.165 170.581 452.305 170.403C452.445 170.226 452.647 170.138 452.913 170.138C453.106 170.138 453.261 170.184 453.378 170.278C453.496 170.37 453.581 170.496 453.634 170.656C453.687 170.817 453.713 170.998 453.713 171.201V172.609H454.092V171.091C454.092 170.936 454.072 170.781 454.033 170.626C453.995 170.471 453.934 170.329 453.849 170.201C453.763 170.074 453.65 169.971 453.509 169.895C453.367 169.818 453.193 169.78 452.985 169.78C452.787 169.78 452.608 169.818 452.448 169.895C452.289 169.97 452.159 170.082 452.057 170.232V169.849H451.717V172.609ZM456.258 172.609V172.28C456.06 172.312 455.894 172.317 455.759 172.295C455.626 172.273 455.529 172.205 455.468 172.09C455.436 172.031 455.418 171.963 455.414 171.886C455.413 171.808 455.412 171.71 455.412 171.595V170.171H456.258V169.849H455.412V169.082H455.039V169.849H454.448V170.171H455.039V171.61C455.039 171.745 455.04 171.865 455.044 171.97C455.049 172.076 455.076 172.179 455.125 172.28C455.187 172.402 455.276 172.493 455.394 172.551C455.513 172.609 455.648 172.641 455.798 172.648C455.949 172.655 456.103 172.642 456.258 172.609ZM457.832 172.684C458.171 172.684 458.437 172.609 458.629 172.461C458.824 172.311 458.921 172.106 458.921 171.845C458.921 171.702 458.89 171.582 458.829 171.485C458.769 171.388 458.666 171.303 458.519 171.232C458.375 171.16 458.175 171.092 457.921 171.027C457.705 170.973 457.538 170.922 457.42 170.876C457.304 170.83 457.224 170.782 457.18 170.731C457.136 170.678 457.114 170.615 457.114 170.541C457.114 170.41 457.175 170.305 457.298 170.227C457.42 170.149 457.58 170.111 457.776 170.115C457.984 170.118 458.155 170.167 458.289 170.263C458.424 170.357 458.505 170.484 458.532 170.646L458.916 170.577C458.897 170.417 458.837 170.276 458.737 170.155C458.636 170.034 458.503 169.941 458.338 169.874C458.174 169.806 457.989 169.772 457.781 169.772C457.573 169.772 457.39 169.805 457.231 169.872C457.074 169.936 456.952 170.029 456.863 170.148C456.776 170.265 456.733 170.403 456.733 170.559C456.733 170.687 456.762 170.796 456.82 170.887C456.879 170.975 456.981 171.054 457.124 171.124C457.267 171.192 457.463 171.261 457.712 171.329C457.945 171.392 458.12 171.446 458.236 171.492C458.353 171.538 458.432 171.589 458.471 171.643C458.51 171.696 458.53 171.765 458.53 171.85C458.53 172 458.469 172.119 458.348 172.208C458.227 172.297 458.062 172.341 457.852 172.341C457.638 172.341 457.457 172.295 457.31 172.203C457.164 172.109 457.071 171.984 457.032 171.827L456.648 171.891C456.696 172.14 456.824 172.334 457.032 172.474C457.241 172.614 457.508 172.684 457.832 172.684ZM460.278 172.686C460.76 172.686 461.11 172.508 461.328 172.152V172.609H461.663V170.894C461.663 170.792 461.658 170.691 461.648 170.593C461.637 170.494 461.615 170.404 461.581 170.324C461.508 170.145 461.383 170.009 461.205 169.915C461.03 169.82 460.816 169.772 460.564 169.772C460.261 169.772 460.013 169.84 459.823 169.977C459.632 170.113 459.504 170.305 459.439 170.552L459.805 170.659C459.858 170.475 459.949 170.34 460.078 170.255C460.209 170.17 460.37 170.127 460.559 170.127C460.821 170.127 461.009 170.189 461.121 170.311C461.234 170.432 461.292 170.617 461.295 170.866C461.172 170.883 461.037 170.901 460.888 170.92C460.742 170.939 460.595 170.96 460.446 170.984C460.298 171.008 460.162 171.035 460.037 171.065C459.831 171.12 459.662 171.211 459.531 171.339C459.4 171.465 459.334 171.641 459.334 171.868C459.334 172.015 459.369 172.15 459.439 172.275C459.509 172.399 459.614 172.499 459.754 172.574C459.895 172.649 460.07 172.686 460.278 172.686ZM460.321 172.361C460.173 172.361 460.053 172.338 459.963 172.29C459.875 172.24 459.81 172.178 459.769 172.103C459.73 172.027 459.71 171.948 459.71 171.868C459.71 171.718 459.76 171.606 459.861 171.531C459.961 171.456 460.071 171.401 460.188 171.367C460.34 171.326 460.516 171.293 460.717 171.267C460.918 171.242 461.109 171.218 461.29 171.196C461.29 171.259 461.287 171.331 461.282 171.413C461.279 171.493 461.269 171.567 461.254 171.635C461.218 171.843 461.119 172.016 460.958 172.154C460.797 172.292 460.585 172.361 460.321 172.361ZM462.326 172.609H462.704V171.137C462.704 170.825 462.774 170.581 462.914 170.403C463.054 170.226 463.256 170.138 463.522 170.138C463.715 170.138 463.87 170.184 463.987 170.278C464.105 170.37 464.19 170.496 464.243 170.656C464.296 170.817 464.322 170.998 464.322 171.201V172.609H464.701V171.091C464.701 170.936 464.681 170.781 464.642 170.626C464.604 170.471 464.543 170.329 464.458 170.201C464.373 170.074 464.259 169.971 464.118 169.895C463.976 169.818 463.802 169.78 463.594 169.78C463.396 169.78 463.217 169.818 463.057 169.895C462.898 169.97 462.768 170.082 462.666 170.232V169.849H462.326V172.609ZM466.512 172.686C466.78 172.686 467.019 172.62 467.23 172.489C467.443 172.358 467.604 172.171 467.713 171.929L467.363 171.794C467.188 172.148 466.899 172.326 466.497 172.326C466.221 172.326 466.004 172.24 465.847 172.067C465.692 171.895 465.607 171.651 465.592 171.334H467.767C467.781 170.846 467.674 170.465 467.448 170.189C467.223 169.911 466.906 169.772 466.497 169.772C466.231 169.772 466 169.832 465.804 169.951C465.61 170.07 465.459 170.24 465.352 170.46C465.244 170.679 465.191 170.94 465.191 171.242C465.191 171.533 465.244 171.787 465.352 172.004C465.461 172.22 465.614 172.388 465.812 172.507C466.011 172.626 466.245 172.686 466.512 172.686ZM466.507 170.117C467.027 170.117 467.316 170.418 467.373 171.019H465.6C465.628 170.728 465.721 170.505 465.876 170.35C466.031 170.195 466.241 170.117 466.507 170.117Z" fill="#98A2A6"/>
<path d="M467.081 141.344C470.503 141.344 473.334 138.548 472.73 135.179C472.288 132.715 471.582 130.299 470.619 127.976C468.863 123.737 466.29 119.886 463.046 116.642C459.802 113.398 455.951 110.825 451.713 109.069C447.474 107.314 442.932 106.41 438.344 106.41C433.757 106.41 429.214 107.314 424.976 109.069C420.737 110.825 416.886 113.398 413.642 116.642C410.398 119.886 407.825 123.737 406.069 127.976C405.107 130.299 404.4 132.715 403.958 135.179C403.354 138.548 406.185 141.344 409.608 141.344C413.031 141.344 415.723 138.519 416.652 135.224C416.892 134.375 417.182 133.538 417.521 132.719C418.654 129.984 420.314 127.5 422.407 125.407C424.5 123.314 426.984 121.654 429.719 120.521C432.454 119.388 435.384 118.805 438.344 118.805C441.304 118.805 444.235 119.388 446.969 120.521C449.704 121.654 452.189 123.314 454.281 125.407C456.374 127.5 458.035 129.984 459.167 132.719C459.507 133.538 459.796 134.375 460.036 135.224C460.966 138.519 463.658 141.344 467.081 141.344Z" fill="#090955"/>
<path d="M455.812 111.09C461.122 114.156 465.532 118.566 468.599 123.877C470.627 127.39 472.02 131.216 472.73 135.178C473.335 138.547 470.504 141.344 467.081 141.344C463.658 141.344 460.966 138.518 460.037 135.224C459.531 133.431 458.803 131.701 457.864 130.074C455.886 126.648 453.04 123.803 449.614 121.825L455.812 111.09Z" fill="#E9F8FB"/>
<g filter="url(#filter1_d_1213_9928)">
<rect x="48" y="36" width="265" height="280" rx="8.5205" fill="#FEFEFE"/>
</g>
<path d="M78.5704 68.6558H82.4219V79.4136H84.2813V68.6558H88.1389V67.0499H78.5704V68.6558ZM90.1084 79.4136H91.9135V73.7509C91.9135 72.5375 92.8492 71.6622 94.129 71.6622C94.5033 71.6622 94.9259 71.7286 95.0708 71.7708V70.0443C94.8897 70.0201 94.5335 70.002 94.3041 70.002C93.2175 70.002 92.2878 70.6178 91.9497 71.6139H91.8531V70.1408H90.1084V79.4136ZM99.2484 79.6188C100.782 79.6188 101.645 78.8401 101.989 78.1458H102.062V79.4136H103.824V73.2559C103.824 70.5574 101.699 70.0201 100.226 70.0201C98.5481 70.0201 97.0026 70.6962 96.3989 72.3866L98.0953 72.7729C98.3609 72.1149 99.0371 71.481 100.25 71.481C101.416 71.481 102.013 72.0908 102.013 73.1412V73.1835C102.013 73.8415 101.337 73.8294 99.6709 74.0226C97.9142 74.2278 96.1152 74.6867 96.1152 76.7935C96.1152 78.6167 97.4856 79.6188 99.2484 79.6188ZM99.6408 78.17C98.6205 78.17 97.884 77.7112 97.884 76.8177C97.884 75.8518 98.7413 75.5077 99.7856 75.3688C100.371 75.2903 101.76 75.1334 102.019 74.8738V76.0691C102.019 77.1678 101.144 78.17 99.6408 78.17ZM108.034 73.9079C108.034 72.4288 108.939 71.5837 110.195 71.5837C111.42 71.5837 112.163 72.3866 112.163 73.7328V79.4136H113.968V73.5155C113.968 71.2215 112.706 70.0201 110.811 70.0201C109.416 70.0201 108.504 70.6661 108.076 71.6501H107.961V70.1408H106.229V79.4136H108.034V73.9079ZM123.337 72.4047C122.963 70.9619 121.834 70.0201 119.83 70.0201C117.735 70.0201 116.25 71.1249 116.25 72.7669C116.25 74.083 117.047 74.9583 118.785 75.3447L120.355 75.6888C121.248 75.888 121.665 76.2864 121.665 76.866C121.665 77.5844 120.898 78.1458 119.715 78.1458C118.634 78.1458 117.94 77.681 117.723 76.7694L115.978 77.035C116.28 78.6771 117.644 79.6007 119.727 79.6007C121.967 79.6007 123.518 78.4114 123.518 76.7332C123.518 75.4232 122.685 74.6142 120.983 74.2218L119.51 73.8837C118.49 73.6423 118.049 73.2982 118.055 72.6703C118.049 71.958 118.822 71.4509 119.848 71.4509C120.971 71.4509 121.49 72.0727 121.701 72.6945L123.337 72.4047ZM128.201 79.6188C129.735 79.6188 130.598 78.8401 130.942 78.1458H131.015V79.4136H132.777V73.2559C132.777 70.5574 130.652 70.0201 129.179 70.0201C127.501 70.0201 125.956 70.6962 125.352 72.3866L127.048 72.7729C127.314 72.1149 127.99 71.481 129.204 71.481C130.369 71.481 130.966 72.0908 130.966 73.1412V73.1835C130.966 73.8415 130.29 73.8294 128.624 74.0226C126.867 74.2278 125.068 74.6867 125.068 76.7935C125.068 78.6167 126.439 79.6188 128.201 79.6188ZM128.594 78.17C127.574 78.17 126.837 77.7112 126.837 76.8177C126.837 75.8518 127.694 75.5077 128.739 75.3688C129.324 75.2903 130.713 75.1334 130.972 74.8738V76.0691C130.972 77.1678 130.097 78.17 128.594 78.17ZM139.088 79.6007C141.279 79.6007 142.698 78.2847 142.897 76.4796H141.14C140.911 77.4818 140.132 78.0734 139.1 78.0734C137.572 78.0734 136.588 76.7996 136.588 74.7772C136.588 72.7911 137.59 71.5414 139.1 71.5414C140.247 71.5414 140.947 72.2658 141.14 73.1352H142.897C142.704 71.2637 141.176 70.0201 139.069 70.0201C136.455 70.0201 134.765 71.9881 134.765 74.8195C134.765 77.6146 136.395 79.6007 139.088 79.6007ZM149.156 70.1408H147.254V67.9193H145.449V70.1408H144.091V71.5897H145.449V77.0652C145.443 78.7495 146.729 79.5645 148.154 79.5343C148.727 79.5283 149.113 79.4196 149.325 79.3411L148.999 77.85C148.878 77.8742 148.655 77.9285 148.365 77.9285C147.779 77.9285 147.254 77.7353 147.254 76.6909V71.5897H149.156V70.1408ZM151.152 79.4136H152.957V70.1408H151.152V79.4136ZM152.064 68.7101C152.686 68.7101 153.205 68.2271 153.205 67.6355C153.205 67.0439 152.686 66.5549 152.064 66.5549C151.436 66.5549 150.923 67.0439 150.923 67.6355C150.923 68.2271 151.436 68.7101 152.064 68.7101ZM159.292 79.6007C161.906 79.6007 163.614 77.687 163.614 74.8195C163.614 71.9338 161.906 70.0201 159.292 70.0201C156.678 70.0201 154.969 71.9338 154.969 74.8195C154.969 77.687 156.678 79.6007 159.292 79.6007ZM159.298 78.0854C157.589 78.0854 156.792 76.5943 156.792 74.8134C156.792 73.0386 157.589 71.5293 159.298 71.5293C160.994 71.5293 161.791 73.0386 161.791 74.8134C161.791 76.5943 160.994 78.0854 159.298 78.0854ZM167.434 73.9079C167.434 72.4288 168.34 71.5837 169.595 71.5837C170.821 71.5837 171.563 72.3866 171.563 73.7328V79.4136H173.368V73.5155C173.368 71.2215 172.107 70.0201 170.211 70.0201C168.816 70.0201 167.905 70.6661 167.476 71.6501H167.362V70.1408H165.629V79.4136H167.434V73.9079Z" fill="#1F1F1F"/>
<path d="M180.017 79.4136H181.514V73.8837H188.106V79.4136H189.604V67.0499H188.106V72.5556H181.514V67.0499H180.017V79.4136ZM192.408 79.4136H193.832V70.1408H192.408V79.4136ZM193.132 68.5954C193.688 68.5954 194.146 68.1607 194.146 67.6295C194.146 67.0982 193.688 66.6636 193.132 66.6636C192.577 66.6636 192.118 67.0982 192.118 67.6295C192.118 68.1607 192.577 68.5954 193.132 68.5954ZM203.01 72.2176C202.563 70.9015 201.561 70.0201 199.726 70.0201C197.77 70.0201 196.321 71.1309 196.321 72.7005C196.321 73.9803 197.082 74.8376 198.784 75.236L200.33 75.5982C201.265 75.8156 201.706 76.2623 201.706 76.9022C201.706 77.6991 200.861 78.3511 199.533 78.3511C198.368 78.3511 197.637 77.85 197.384 76.8539L196.031 77.192C196.363 78.7676 197.661 79.6068 199.557 79.6068C201.712 79.6068 203.179 78.4296 203.179 76.8298C203.179 75.5379 202.37 74.7229 200.716 74.3184L199.34 73.9803C198.241 73.7087 197.746 73.3404 197.746 72.6281C197.746 71.8312 198.591 71.2516 199.726 71.2516C200.97 71.2516 201.483 71.9399 201.73 72.5798L203.01 72.2176ZM209.356 70.1408H207.376V67.9193H205.952V70.1408H204.551V71.3482H205.952V77.1437C205.952 78.7616 207.256 79.5343 208.463 79.5343C208.994 79.5343 209.332 79.4377 209.525 79.3653L209.236 78.0854C209.115 78.1096 208.922 78.1579 208.608 78.1579C207.98 78.1579 207.376 77.9647 207.376 76.7573V71.3482H209.356V70.1408ZM215.167 79.6068C217.678 79.6068 219.369 77.6991 219.369 74.8255C219.369 71.9278 217.678 70.0201 215.167 70.0201C212.656 70.0201 210.965 71.9278 210.965 74.8255C210.965 77.6991 212.656 79.6068 215.167 79.6068ZM215.167 78.3269C213.259 78.3269 212.39 76.6849 212.39 74.8255C212.39 72.9661 213.259 71.2999 215.167 71.2999C217.075 71.2999 217.944 72.9661 217.944 74.8255C217.944 76.6849 217.075 78.3269 215.167 78.3269ZM221.543 79.4136H222.968V73.5457C222.968 72.29 223.958 71.3724 225.31 71.3724C225.691 71.3724 226.083 71.4448 226.18 71.469V70.0201C226.017 70.008 225.643 69.996 225.431 69.996C224.32 69.996 223.355 70.6238 223.016 71.5414H222.92V70.1408H221.543V79.4136ZM229.068 82.8908C230.354 82.8908 231.26 82.2087 231.797 80.7658L235.745 70.165L234.188 70.1408L231.628 77.5301H231.532L228.972 70.1408H227.426L230.855 79.4619L230.59 80.1863C230.071 81.5989 229.431 81.7318 228.392 81.4661L228.03 82.7218C228.175 82.7943 228.586 82.8908 229.068 82.8908Z" fill="#7E859A"/>
<path d="M143.217 117C145.482 117 146.76 115.591 146.76 113.267C146.76 110.958 145.482 109.563 143.318 109.563H140.922V117H143.217ZM141.822 116.201V110.362H143.26C145.003 110.362 145.889 111.466 145.889 113.267C145.889 115.082 145.003 116.201 143.159 116.201H141.822ZM148.155 117H149.012V113.47C149.012 112.715 149.607 112.163 150.42 112.163C150.649 112.163 150.885 112.207 150.943 112.221V111.35C150.845 111.343 150.62 111.335 150.493 111.335C149.825 111.335 149.244 111.713 149.041 112.265H148.983V111.422H148.155V117ZM154.055 117.116C155.565 117.116 156.582 115.968 156.582 114.24C156.582 112.497 155.565 111.35 154.055 111.35C152.544 111.35 151.528 112.497 151.528 114.24C151.528 115.968 152.544 117.116 154.055 117.116ZM154.055 116.346C152.908 116.346 152.385 115.358 152.385 114.24C152.385 113.122 152.908 112.12 154.055 112.12C155.202 112.12 155.725 113.122 155.725 114.24C155.725 115.358 155.202 116.346 154.055 116.346ZM157.89 119.091H158.747V116.143H158.82C159.008 116.448 159.371 117.116 160.446 117.116C161.84 117.116 162.814 115.997 162.814 114.226C162.814 112.468 161.84 111.35 160.432 111.35C159.342 111.35 159.008 112.018 158.82 112.308H158.718V111.422H157.89V119.091ZM158.732 114.211C158.732 112.962 159.284 112.12 160.33 112.12C161.419 112.12 161.957 113.035 161.957 114.211C161.957 115.402 161.405 116.346 160.33 116.346C159.299 116.346 158.732 115.475 158.732 114.211ZM164.237 117H165.065V116.143H165.166C165.355 116.448 165.718 117.116 166.793 117.116C168.187 117.116 169.16 115.997 169.16 114.226C169.16 112.468 168.187 111.35 166.778 111.35C165.689 111.35 165.355 112.018 165.166 112.308H165.094V109.563H164.237V117ZM165.079 114.211C165.079 112.962 165.631 112.12 166.677 112.12C167.766 112.12 168.303 113.035 168.303 114.211C168.303 115.402 167.752 116.346 166.677 116.346C165.646 116.346 165.079 115.475 165.079 114.211ZM172.737 117.116C174.247 117.116 175.264 115.968 175.264 114.24C175.264 112.497 174.247 111.35 172.737 111.35C171.226 111.35 170.21 112.497 170.21 114.24C170.21 115.968 171.226 117.116 172.737 117.116ZM172.737 116.346C171.589 116.346 171.067 115.358 171.067 114.24C171.067 113.122 171.589 112.12 172.737 112.12C173.884 112.12 174.407 113.122 174.407 114.24C174.407 115.358 173.884 116.346 172.737 116.346ZM176.981 111.422H175.994L177.766 114.211L175.994 117H176.981L178.317 114.835L179.654 117H180.641L178.84 114.211L180.641 111.422H179.654L178.317 113.703L176.981 111.422Z" fill="#373D4D"/>
<path d="M194.557 133.924H193.773L191.376 142.827H192.161L194.557 133.924ZM195.573 141.709H196.43V138.223C196.43 137.406 197.025 136.829 197.693 136.829C198.343 136.829 198.797 137.254 198.797 137.889V141.709H199.668V138.078C199.668 137.359 200.119 136.829 200.903 136.829C201.513 136.829 202.036 137.152 202.036 137.976V141.709H202.893V137.976C202.893 136.666 202.188 136.059 201.193 136.059C200.395 136.059 199.81 136.426 199.523 137.003H199.465C199.189 136.408 198.703 136.059 197.969 136.059C197.243 136.059 196.706 136.408 196.473 137.003H196.401V136.132H195.573V141.709ZM206.725 141.825C208.236 141.825 209.252 140.678 209.252 138.95C209.252 137.207 208.236 136.059 206.725 136.059C205.215 136.059 204.198 137.207 204.198 138.95C204.198 140.678 205.215 141.825 206.725 141.825ZM206.725 141.055C205.578 141.055 205.055 140.068 205.055 138.95C205.055 137.831 205.578 136.829 206.725 136.829C207.872 136.829 208.395 137.831 208.395 138.95C208.395 140.068 207.872 141.055 206.725 141.055ZM211.417 138.354C211.417 137.381 212.02 136.829 212.84 136.829C213.636 136.829 214.119 137.348 214.119 138.223V141.709H214.975V138.165C214.975 136.742 214.217 136.059 213.087 136.059C212.245 136.059 211.722 136.437 211.461 137.003H211.388V136.132H210.56V141.709H211.417V138.354ZM218.967 136.132H217.776V134.796H216.919V136.132H216.076V136.858H216.919V140.344C216.919 141.317 217.703 141.782 218.429 141.782C218.749 141.782 218.952 141.724 219.068 141.68L218.894 140.91C218.821 140.925 218.705 140.954 218.516 140.954C218.139 140.954 217.776 140.838 217.776 140.111V136.858H218.967V136.132ZM221.232 138.354C221.232 137.381 221.853 136.829 222.699 136.829C223.505 136.829 223.992 137.337 223.992 138.223V141.709H224.849V138.165C224.849 136.731 224.086 136.059 222.946 136.059C222.067 136.059 221.566 136.426 221.305 137.003H221.232V134.273H220.375V141.709H221.232V138.354Z" fill="#848B9C"/>
<path d="M144.959 143.442H145.951V142.092C148.493 141.917 149.921 140.416 149.921 138.528C149.921 136.204 147.718 135.454 146.436 135.115L145.951 134.982V130.679C147.234 130.806 148.166 131.496 148.299 132.597H149.752C149.691 130.83 148.142 129.487 145.951 129.342V127.95H144.959V129.36C142.883 129.572 141.328 130.891 141.328 132.791C141.328 134.461 142.538 135.454 144.475 136.011L144.959 136.15V140.731C143.688 140.598 142.647 139.944 142.538 138.697H140.989C141.128 140.604 142.581 141.935 144.959 142.092V143.442ZM145.951 140.731V136.434L146 136.446C147.307 136.809 148.469 137.269 148.469 138.504C148.469 139.72 147.416 140.567 145.951 140.731ZM144.959 134.716C144.039 134.455 142.78 133.947 142.78 132.719C142.78 131.672 143.628 130.873 144.959 130.697V134.716ZM157.351 141.893H158.924L164.443 130.903V129.499H156.504V130.83H162.894V130.927L157.351 141.893ZM165.634 141.989C166.233 141.989 166.723 141.499 166.723 140.9C166.723 140.301 166.233 139.811 165.634 139.811C165.035 139.811 164.545 140.301 164.545 140.9C164.545 141.499 165.035 141.989 165.634 141.989ZM173.091 129.33C170.573 129.299 168.952 131.194 168.952 133.469C168.952 135.865 170.719 137.584 172.849 137.584C174.132 137.584 175.221 136.955 175.899 135.938H175.996C175.996 138.988 174.81 140.731 172.897 140.731C171.59 140.731 170.791 139.908 170.525 138.77H169.048C169.339 140.731 170.816 142.062 172.897 142.062C175.681 142.062 177.4 139.593 177.4 135.188C177.4 130.637 175.124 129.354 173.091 129.33ZM173.091 130.661C174.64 130.661 175.778 131.992 175.778 133.445C175.778 134.921 174.567 136.253 173.042 136.253C171.517 136.253 170.404 135.018 170.404 133.469C170.404 131.92 171.566 130.661 173.091 130.661ZM183.725 129.33C181.207 129.299 179.586 131.194 179.586 133.469C179.586 135.865 181.353 137.584 183.483 137.584C184.766 137.584 185.855 136.955 186.533 135.938H186.63C186.63 138.988 185.443 140.731 183.531 140.731C182.224 140.731 181.425 139.908 181.159 138.77H179.682C179.973 140.731 181.45 142.062 183.531 142.062C186.315 142.062 188.034 139.593 188.034 135.188C188.034 130.637 185.758 129.354 183.725 129.33ZM183.725 130.661C185.274 130.661 186.412 131.992 186.412 133.445C186.412 134.921 185.201 136.253 183.676 136.253C182.151 136.253 181.038 135.018 181.038 133.469C181.038 131.92 182.2 130.661 183.725 130.661Z" fill="#0A1838"/>
<rect x="78.0015" y="102" width="48" height="48" rx="12" fill="#D0ECF7"/>
<path d="M105.179 138C104.887 138 104.598 137.945 104.329 137.838C104.061 137.732 103.819 137.575 103.617 137.379C102.792 136.576 102.823 135.308 103.685 134.541C103.716 134.512 106.888 131.694 108.556 129.981C109.346 129.172 109.742 128.133 109.672 127.061C109.598 125.925 109.008 124.859 108.01 124.059C106.7 123.007 104.113 122.773 102.495 124.122C101.531 124.923 100.363 126.103 100.352 126.116C99.5423 126.931 98.1773 126.983 97.2995 126.235C96.4222 125.485 96.3625 124.214 97.1702 123.399C97.2241 123.344 98.4907 122.064 99.6117 121.131C102.684 118.57 107.719 118.52 110.834 121.02C112.72 122.534 113.839 124.593 113.985 126.818C114.127 128.978 113.334 131.061 111.758 132.68C109.984 134.497 106.804 137.322 106.67 137.444C106.268 137.801 105.734 138 105.179 138ZM98.6977 132.823C96.6979 132.823 94.7015 132.209 93.168 130.978C91.283 129.465 90.1644 127.406 90.0172 125.181C89.8778 123.021 90.6676 120.938 92.2464 119.32C94.0185 117.502 97.1984 114.675 97.3328 114.556C98.1945 113.789 99.5601 113.819 100.386 114.62C101.209 115.422 101.18 116.692 100.318 117.458C100.285 117.487 97.1162 120.305 95.4459 122.016C94.657 122.829 94.2589 123.865 94.3292 124.936C94.4044 126.073 94.994 127.139 95.991 127.94C97.3028 128.994 99.8897 129.225 101.509 127.878C102.471 127.074 103.64 125.896 103.652 125.884C104.458 125.067 105.827 125.014 106.703 125.765C107.581 126.515 107.64 127.786 106.832 128.602C106.778 128.654 105.51 129.933 104.391 130.867C102.831 132.168 100.762 132.823 98.6977 132.823Z" fill="white"/>
<path d="M143.217 183C145.482 183 146.76 181.592 146.76 179.268C146.76 176.959 145.482 175.564 143.318 175.564H140.922V183H143.217ZM141.822 182.202V176.363H143.26C145.003 176.363 145.889 177.467 145.889 179.268C145.889 181.083 145.003 182.202 143.159 182.202H141.822ZM148.155 183H149.012V179.471C149.012 178.716 149.607 178.164 150.42 178.164C150.649 178.164 150.885 178.208 150.943 178.222V177.351C150.845 177.344 150.62 177.336 150.493 177.336C149.825 177.336 149.244 177.714 149.041 178.266H148.983V177.423H148.155V183ZM154.055 183.117C155.565 183.117 156.582 181.969 156.582 180.241C156.582 178.498 155.565 177.351 154.055 177.351C152.544 177.351 151.528 178.498 151.528 180.241C151.528 181.969 152.544 183.117 154.055 183.117ZM154.055 182.347C152.908 182.347 152.385 181.359 152.385 180.241C152.385 179.123 152.908 178.121 154.055 178.121C155.202 178.121 155.725 179.123 155.725 180.241C155.725 181.359 155.202 182.347 154.055 182.347ZM157.89 185.092H158.747V182.144H158.82C159.008 182.449 159.371 183.117 160.446 183.117C161.84 183.117 162.814 181.998 162.814 180.226C162.814 178.469 161.84 177.351 160.432 177.351C159.342 177.351 159.008 178.019 158.82 178.309H158.718V177.423H157.89V185.092ZM158.732 180.212C158.732 178.963 159.284 178.121 160.33 178.121C161.419 178.121 161.957 179.036 161.957 180.212C161.957 181.403 161.405 182.347 160.33 182.347C159.299 182.347 158.732 181.476 158.732 180.212ZM164.237 183H165.065V182.144H165.166C165.355 182.449 165.718 183.117 166.793 183.117C168.187 183.117 169.16 181.998 169.16 180.226C169.16 178.469 168.187 177.351 166.778 177.351C165.689 177.351 165.355 178.019 165.166 178.309H165.094V175.564H164.237V183ZM165.079 180.212C165.079 178.963 165.631 178.121 166.677 178.121C167.766 178.121 168.303 179.036 168.303 180.212C168.303 181.403 167.752 182.347 166.677 182.347C165.646 182.347 165.079 181.476 165.079 180.212ZM172.737 183.117C174.247 183.117 175.264 181.969 175.264 180.241C175.264 178.498 174.247 177.351 172.737 177.351C171.226 177.351 170.21 178.498 170.21 180.241C170.21 181.969 171.226 183.117 172.737 183.117ZM172.737 182.347C171.589 182.347 171.067 181.359 171.067 180.241C171.067 179.123 171.589 178.121 172.737 178.121C173.884 178.121 174.407 179.123 174.407 180.241C174.407 181.359 173.884 182.347 172.737 182.347ZM176.981 177.423H175.994L177.766 180.212L175.994 183H176.981L178.317 180.836L179.654 183H180.641L178.84 180.212L180.641 177.423H179.654L178.317 179.704L176.981 177.423Z" fill="#373D4D"/>
<path d="M206.336 199.926H205.552L203.156 208.829H203.94L206.336 199.926ZM207.352 207.711H208.209V204.225C208.209 203.408 208.804 202.831 209.473 202.831C210.122 202.831 210.576 203.256 210.576 203.891V207.711H211.448V204.08C211.448 203.361 211.898 202.831 212.682 202.831C213.292 202.831 213.815 203.154 213.815 203.978V207.711H214.672V203.978C214.672 202.668 213.968 202.061 212.973 202.061C212.174 202.061 211.589 202.428 211.303 203.005H211.244C210.968 202.41 210.482 202.061 209.749 202.061C209.022 202.061 208.485 202.41 208.253 203.005H208.18V202.134H207.352V207.711ZM218.504 207.827C220.015 207.827 221.032 206.68 221.032 204.951C221.032 203.209 220.015 202.061 218.504 202.061C216.994 202.061 215.977 203.209 215.977 204.951C215.977 206.68 216.994 207.827 218.504 207.827ZM218.504 207.057C217.357 207.057 216.834 206.07 216.834 204.951C216.834 203.833 217.357 202.831 218.504 202.831C219.652 202.831 220.175 203.833 220.175 204.951C220.175 206.07 219.652 207.057 218.504 207.057ZM223.196 204.356C223.196 203.383 223.799 202.831 224.62 202.831C225.415 202.831 225.898 203.35 225.898 204.225V207.711H226.755V204.167C226.755 202.744 225.996 202.061 224.867 202.061C224.024 202.061 223.501 202.439 223.24 203.005H223.167V202.134H222.34V207.711H223.196V204.356ZM230.746 202.134H229.555V200.798H228.698V202.134H227.856V202.86H228.698V206.346C228.698 207.319 229.482 207.784 230.209 207.784C230.528 207.784 230.731 207.725 230.848 207.682L230.673 206.912C230.601 206.927 230.485 206.956 230.296 206.956C229.918 206.956 229.555 206.84 229.555 206.113V202.86H230.746V202.134ZM233.012 204.356C233.012 203.383 233.633 202.831 234.479 202.831C235.285 202.831 235.771 203.339 235.771 204.225V207.711H236.628V204.167C236.628 202.733 235.866 202.061 234.725 202.061C233.847 202.061 233.346 202.428 233.084 203.005H233.012V200.275H232.155V207.711H233.012V204.356Z" fill="#848B9C"/>
<path d="M144.959 210.296H145.951V208.946C148.493 208.771 149.921 207.27 149.921 205.382C149.921 203.058 147.718 202.308 146.436 201.969L145.951 201.836V197.533C147.234 197.66 148.166 198.35 148.299 199.451H149.752C149.691 197.684 148.142 196.341 145.951 196.196V194.804H144.959V196.214C142.883 196.426 141.328 197.745 141.328 199.645C141.328 201.315 142.538 202.308 144.475 202.865L144.959 203.004V207.585C143.688 207.452 142.647 206.798 142.538 205.551H140.989C141.128 207.458 142.581 208.789 144.959 208.946V210.296ZM145.951 207.585V203.288L146 203.3C147.307 203.663 148.469 204.123 148.469 205.358C148.469 206.574 147.416 207.421 145.951 207.585ZM144.959 201.57C144.039 201.309 142.78 200.801 142.78 199.573C142.78 198.526 143.628 197.727 144.959 197.551V201.57ZM161.321 196.353H159.82L156.722 198.411V199.936L159.747 197.927H159.82V208.747H161.321V196.353ZM168.758 208.916C171.118 208.916 172.849 207.173 172.849 204.801C172.849 202.399 171.179 200.638 168.903 200.638C168.068 200.638 167.257 200.934 166.749 201.34H166.676L167.112 197.684H172.292V196.353H165.853L165.103 202.453L166.507 202.622C167.021 202.253 167.899 201.987 168.661 201.993C170.241 202.005 171.396 203.203 171.396 204.825C171.396 206.417 170.283 207.585 168.758 207.585C167.487 207.585 166.477 206.768 166.362 205.648H164.909C165 207.536 166.628 208.916 168.758 208.916ZM175.852 208.843C176.451 208.843 176.941 208.353 176.941 207.754C176.941 207.155 176.451 206.665 175.852 206.665C175.253 206.665 174.763 207.155 174.763 207.754C174.763 208.353 175.253 208.843 175.852 208.843ZM183.067 208.916C185.542 208.916 187.267 207.47 187.279 205.455C187.267 203.887 186.22 202.556 184.882 202.308V202.235C186.044 201.933 186.807 200.795 186.819 199.476C186.807 197.588 185.221 196.184 183.067 196.184C180.888 196.184 179.303 197.588 179.315 199.476C179.303 200.795 180.065 201.933 181.251 202.235V202.308C179.89 202.556 178.843 203.887 178.855 205.455C178.843 207.47 180.568 208.916 183.067 208.916ZM183.067 207.585C181.366 207.585 180.319 206.713 180.331 205.382C180.319 203.984 181.475 202.986 183.067 202.986C184.634 202.986 185.79 203.984 185.802 205.382C185.79 206.713 184.743 207.585 183.067 207.585ZM183.067 201.703C181.711 201.703 180.755 200.855 180.767 199.573C180.755 198.314 181.675 197.491 183.067 197.491C184.434 197.491 185.354 198.314 185.366 199.573C185.354 200.855 184.398 201.703 183.067 201.703ZM193.543 196.184C191.026 196.153 189.404 198.048 189.404 200.323C189.404 202.719 191.171 204.438 193.301 204.438C194.584 204.438 195.674 203.809 196.351 202.792H196.448C196.448 205.842 195.262 207.585 193.35 207.585C192.043 207.585 191.244 206.762 190.978 205.624H189.501C189.791 207.585 191.268 208.916 193.35 208.916C196.133 208.916 197.852 206.447 197.852 202.042C197.852 197.491 195.577 196.208 193.543 196.184ZM193.543 197.515C195.093 197.515 196.23 198.846 196.23 200.299C196.23 201.775 195.02 203.107 193.495 203.107C191.97 203.107 190.857 201.872 190.857 200.323C190.857 198.774 192.018 197.515 193.543 197.515Z" fill="#0A1838"/>
<rect x="78.0015" y="169" width="48" height="48" rx="12" fill="#D0ECF7"/>
<path d="M87.6494 198.497C86.5266 199.271 86.7345 200.605 89.2962 201.439C91.8578 202.273 94.8352 202.446 97.4551 201.981C97.3802 201.981 97.6048 201.981 97.4551 201.981V199.349L94.9101 200.2C93.937 200.51 92.9639 200.588 91.9909 200.355C91.2423 200.123 91.392 199.659 92.2903 199.271L97.4551 197.413V194.549L90.2693 197.104C89.371 197.413 88.4728 197.878 87.6494 198.497ZM105.015 186.884V194.394C108.084 195.942 110.479 194.394 110.479 190.368C110.479 186.265 109.057 184.407 104.94 182.936C102.77 182.162 100.524 181.465 98.2784 181V203.375L103.518 205V186.188C103.518 185.336 103.518 184.717 104.117 184.949C104.94 185.181 105.015 186.033 105.015 186.884ZM114.746 196.717C112.575 195.942 110.255 195.633 108.009 195.865C106.762 195.946 105.591 196.311 104.416 196.717V199.736L109.282 197.878C110.255 197.568 111.228 197.491 112.201 197.723C112.949 197.955 112.8 198.42 111.902 198.807L104.416 201.671V204.613L114.746 200.665C115.494 200.355 116.168 199.968 116.767 199.349C117.291 198.575 117.066 197.491 114.746 196.717Z" fill="#FEFEFE"/>
<path d="M143.217 249C145.482 249 146.76 247.592 146.76 245.268C146.76 242.959 145.482 241.564 143.318 241.564H140.922V249H143.217ZM141.822 248.202V242.363H143.26C145.003 242.363 145.889 243.467 145.889 245.268C145.889 247.083 145.003 248.202 143.159 248.202H141.822ZM148.155 249H149.012V245.471C149.012 244.716 149.607 244.164 150.42 244.164C150.649 244.164 150.885 244.208 150.943 244.222V243.351C150.845 243.344 150.62 243.336 150.493 243.336C149.825 243.336 149.244 243.714 149.041 244.266H148.983V243.423H148.155V249ZM154.055 249.117C155.565 249.117 156.582 247.969 156.582 246.241C156.582 244.498 155.565 243.351 154.055 243.351C152.544 243.351 151.528 244.498 151.528 246.241C151.528 247.969 152.544 249.117 154.055 249.117ZM154.055 248.347C152.908 248.347 152.385 247.359 152.385 246.241C152.385 245.123 152.908 244.121 154.055 244.121C155.202 244.121 155.725 245.123 155.725 246.241C155.725 247.359 155.202 248.347 154.055 248.347ZM157.89 251.092H158.747V248.144H158.82C159.008 248.449 159.371 249.117 160.446 249.117C161.84 249.117 162.814 247.998 162.814 246.226C162.814 244.469 161.84 243.351 160.432 243.351C159.342 243.351 159.008 244.019 158.82 244.309H158.718V243.423H157.89V251.092ZM158.732 246.212C158.732 244.963 159.284 244.121 160.33 244.121C161.419 244.121 161.957 245.036 161.957 246.212C161.957 247.403 161.405 248.347 160.33 248.347C159.299 248.347 158.732 247.476 158.732 246.212ZM164.237 249H165.065V248.144H165.166C165.355 248.449 165.718 249.117 166.793 249.117C168.187 249.117 169.16 247.998 169.16 246.226C169.16 244.469 168.187 243.351 166.778 243.351C165.689 243.351 165.355 244.019 165.166 244.309H165.094V241.564H164.237V249ZM165.079 246.212C165.079 244.963 165.631 244.121 166.677 244.121C167.766 244.121 168.303 245.036 168.303 246.212C168.303 247.403 167.752 248.347 166.677 248.347C165.646 248.347 165.079 247.476 165.079 246.212ZM172.737 249.117C174.247 249.117 175.264 247.969 175.264 246.241C175.264 244.498 174.247 243.351 172.737 243.351C171.226 243.351 170.21 244.498 170.21 246.241C170.21 247.969 171.226 249.117 172.737 249.117ZM172.737 248.347C171.589 248.347 171.067 247.359 171.067 246.241C171.067 245.123 171.589 244.121 172.737 244.121C173.884 244.121 174.407 245.123 174.407 246.241C174.407 247.359 173.884 248.347 172.737 248.347ZM176.981 243.423H175.994L177.766 246.212L175.994 249H176.981L178.317 246.836L179.654 249H180.641L178.84 246.212L180.641 243.423H179.654L178.317 245.704L176.981 243.423Z" fill="#373D4D"/>
<path d="M198.415 266.216H197.63L195.234 275.119H196.018L198.415 266.216ZM200.694 274H201.536L202.756 269.716H202.843L204.063 274H204.906L206.605 268.423H205.704L204.499 272.679H204.441L203.264 268.423H202.349L201.159 272.693H201.1L199.895 268.423H198.995L200.694 274ZM209.886 274.117C211.019 274.117 211.847 273.55 212.108 272.708L211.281 272.476C211.063 273.056 210.558 273.347 209.886 273.347C208.881 273.347 208.187 272.697 208.147 271.502H212.196V271.139C212.196 269.062 210.961 268.351 209.799 268.351C208.289 268.351 207.287 269.542 207.287 271.256C207.287 272.969 208.274 274.117 209.886 274.117ZM208.147 270.762C208.205 269.894 208.819 269.121 209.799 269.121C210.729 269.121 211.324 269.818 211.324 270.762H208.147ZM215.837 274.117C216.97 274.117 217.798 273.55 218.059 272.708L217.232 272.476C217.014 273.056 216.509 273.347 215.837 273.347C214.832 273.347 214.138 272.697 214.098 271.502H218.147V271.139C218.147 269.062 216.912 268.351 215.75 268.351C214.24 268.351 213.238 269.542 213.238 271.256C213.238 272.969 214.225 274.117 215.837 274.117ZM214.098 270.762C214.156 269.894 214.77 269.121 215.75 269.121C216.68 269.121 217.275 269.818 217.275 270.762H214.098ZM219.45 274H220.307V271.913L220.906 271.357L222.994 274H224.083L221.552 270.805L223.909 268.423H222.849L220.409 270.907H220.307V266.564H219.45V274Z" fill="#848B9C"/>
<path d="M144.959 276.295H145.951V274.945C148.493 274.77 149.921 273.269 149.921 271.381C149.921 269.057 147.718 268.307 146.436 267.968L145.951 267.835V263.532C147.234 263.659 148.166 264.349 148.299 265.451H149.752C149.691 263.683 148.142 262.34 145.951 262.195V260.803H144.959V262.213C142.883 262.425 141.328 263.744 141.328 265.644C141.328 267.314 142.538 268.307 144.475 268.864L144.959 269.003V273.584C143.688 273.451 142.647 272.797 142.538 271.55H140.989C141.128 273.457 142.581 274.788 144.959 274.945V276.295ZM145.951 273.584V269.287L146 269.299C147.307 269.662 148.469 270.122 148.469 271.357C148.469 272.573 147.416 273.42 145.951 273.584ZM144.959 267.569C144.039 267.308 142.78 266.8 142.78 265.572C142.78 264.525 143.628 263.726 144.959 263.55V267.569ZM161.006 274.915C163.741 274.915 165.315 272.597 165.315 268.549C165.315 264.531 163.717 262.183 161.006 262.183C158.295 262.183 156.697 264.531 156.697 268.549C156.697 272.597 158.271 274.915 161.006 274.915ZM161.006 273.584C159.203 273.584 158.15 271.774 158.15 268.549C158.15 265.329 159.215 263.49 161.006 263.49C162.797 263.49 163.862 265.329 163.862 268.549C163.862 271.774 162.809 273.584 161.006 273.584ZM168.247 274.842C168.846 274.842 169.336 274.352 169.336 273.753C169.336 273.154 168.846 272.664 168.247 272.664C167.648 272.664 167.157 273.154 167.157 273.753C167.157 274.352 167.648 274.842 168.247 274.842ZM175.704 262.183C173.186 262.152 171.564 264.047 171.564 266.322C171.564 268.718 173.331 270.437 175.462 270.437C176.744 270.437 177.834 269.808 178.512 268.791H178.608C178.608 271.841 177.422 273.584 175.51 273.584C174.203 273.584 173.404 272.761 173.138 271.623H171.661C171.952 273.584 173.428 274.915 175.51 274.915C178.294 274.915 180.012 272.446 180.012 268.041C180.012 263.49 177.737 262.207 175.704 262.183ZM175.704 263.514C177.253 263.514 178.39 264.845 178.39 266.298C178.39 267.774 177.18 269.106 175.655 269.106C174.13 269.106 173.017 267.871 173.017 266.322C173.017 264.773 174.179 263.514 175.704 263.514ZM186.338 262.183C183.82 262.152 182.198 264.047 182.198 266.322C182.198 268.718 183.965 270.437 186.096 270.437C187.378 270.437 188.468 269.808 189.145 268.791H189.242C189.242 271.841 188.056 273.584 186.144 273.584C184.837 273.584 184.038 272.761 183.772 271.623H182.295C182.586 273.584 184.062 274.915 186.144 274.915C188.928 274.915 190.646 272.446 190.646 268.041C190.646 263.49 188.371 262.207 186.338 262.183ZM186.338 263.514C187.887 263.514 189.024 264.845 189.024 266.298C189.024 267.774 187.814 269.106 186.289 269.106C184.764 269.106 183.651 267.871 183.651 266.322C183.651 264.773 184.813 263.514 186.338 263.514Z" fill="#0A1838"/>
<rect x="78.0015" y="235" width="48" height="48" rx="12" fill="#D0ECF7"/>
<path d="M110.228 253.077C110.514 251.211 110.228 249.967 109.227 248.819C108.129 247.527 106.126 247 103.55 247H96.157C95.6323 247 95.203 247.383 95.1076 247.91L92.0072 267.526C91.9595 267.909 92.2456 268.244 92.6272 268.244H97.2064L96.8725 270.253C96.8248 270.588 97.0633 270.875 97.4448 270.875H101.308C101.785 270.875 102.167 270.541 102.215 270.11L103.026 265.038C103.073 264.608 103.503 264.273 103.932 264.273H104.504C108.225 264.273 111.182 262.742 112.041 258.34C112.375 256.522 112.232 254.943 111.278 253.89C110.991 253.555 110.657 253.316 110.228 253.077Z" fill="white"/>
<path d="M110.228 253.077C110.514 251.211 110.228 249.967 109.227 248.819C108.129 247.527 106.126 247 103.55 247H96.157C95.6323 247 95.203 247.383 95.1076 247.91L92.0072 267.526C91.9595 267.909 92.2456 268.244 92.6272 268.244H97.2064L98.3034 261.163C98.3988 260.637 98.8281 260.254 99.3528 260.254H101.547C105.84 260.254 109.179 258.531 110.133 253.46C110.181 253.364 110.181 253.22 110.228 253.077Z" fill="#E8F6FA"/>
<path d="M99.5913 253.125C99.639 252.79 100.068 252.359 100.498 252.359H106.317C106.985 252.359 107.652 252.407 108.225 252.503C108.75 252.598 109.704 252.838 110.181 253.125C110.467 251.259 110.181 250.015 109.179 248.866C108.129 247.527 106.126 247 103.55 247H96.157C95.6323 247 95.203 247.383 95.1076 247.91L92.0072 267.526C91.9595 267.909 92.2456 268.244 92.6272 268.244H97.2064L99.5913 253.125Z" fill="#E8F6FA"/>
<g filter="url(#filter2_d_1213_9928)">
<rect x="215" y="249.001" width="341" height="265" rx="17.041" fill="white"/>
</g>
<rect x="255.262" y="325.112" width="278.577" height="1.35891" fill="#FCFCFC"/>
<rect x="255.262" y="378.109" width="278.577" height="1.35891" fill="#FCFCFC"/>
<rect x="255.262" y="484.104" width="278.577" height="1.35891" fill="#FCFCFC"/>
<rect x="255.262" y="431.107" width="278.577" height="1.35891" fill="#FCFCFC"/>
<path d="M265.699 347.852V484.606H529.409V468.416C508.959 474.807 504.699 404.513 483.398 369.153C462.097 333.792 445.908 411.755 439.943 388.324C403.731 224.305 367.519 461.175 353.034 423.258C338.549 385.342 311.284 392.158 295.521 404.513C282.911 414.397 270.385 370.857 265.699 347.852Z" fill="url(#paint0_linear_1213_9928)"/>
<path d="M265.699 347.852C270.385 370.857 282.911 414.397 295.521 404.513C311.284 392.158 338.549 385.342 353.034 423.258C367.519 461.175 403.731 224.305 439.943 388.324C445.908 411.755 462.097 333.792 483.398 369.153C504.699 404.513 508.959 474.807 529.409 468.416" stroke="#078DC2" stroke-width="3.4082" stroke-linecap="round"/>
<path d="M248.429 285.575H249.48V281.695H253.242V280.763H249.48V277.832H253.631V276.9H248.429V285.575ZM257.461 285.711C259.223 285.711 260.409 284.372 260.409 282.356C260.409 280.323 259.223 278.984 257.461 278.984C255.698 278.984 254.512 280.323 254.512 282.356C254.512 284.372 255.698 285.711 257.461 285.711ZM257.461 284.813C256.122 284.813 255.512 283.661 255.512 282.356C255.512 281.051 256.122 279.882 257.461 279.882C258.799 279.882 259.409 281.051 259.409 282.356C259.409 283.661 258.799 284.813 257.461 284.813ZM262.935 276.9H261.935V285.575H262.935V276.9ZM265.765 276.9H264.766V285.575H265.765V276.9ZM270.24 285.711C272.002 285.711 273.188 284.372 273.188 282.356C273.188 280.323 272.002 278.984 270.24 278.984C268.478 278.984 267.291 280.323 267.291 282.356C267.291 284.372 268.478 285.711 270.24 285.711ZM270.24 284.813C268.901 284.813 268.291 283.661 268.291 282.356C268.291 281.051 268.901 279.882 270.24 279.882C271.578 279.882 272.188 281.051 272.188 282.356C272.188 283.661 271.578 284.813 270.24 284.813ZM275.967 285.575H276.95L278.373 280.577H278.475L279.898 285.575H280.881L282.863 279.069H281.813L280.406 284.033H280.339L278.966 279.069H277.899L276.509 284.05H276.441L275.035 279.069H273.984L275.967 285.575ZM286.692 285.711C288.013 285.711 288.979 285.05 289.284 284.067L288.318 283.796C288.064 284.474 287.475 284.813 286.692 284.813C285.518 284.813 284.709 284.054 284.662 282.661H289.386V282.237C289.386 279.814 287.945 278.984 286.59 278.984C284.828 278.984 283.659 280.373 283.659 282.373C283.659 284.372 284.811 285.711 286.692 285.711ZM284.662 281.797C284.73 280.784 285.446 279.882 286.59 279.882C287.674 279.882 288.369 280.695 288.369 281.797H284.662ZM290.906 285.575H291.906V281.458C291.906 280.577 292.601 279.933 293.55 279.933C293.817 279.933 294.092 279.984 294.16 280.001V278.984C294.045 278.975 293.783 278.967 293.634 278.967C292.855 278.967 292.177 279.408 291.94 280.051H291.872V279.069H290.906V285.575ZM304.766 279.611H305.85C305.528 277.933 304.122 276.781 302.292 276.781C300.068 276.781 298.496 278.493 298.496 281.237C298.496 283.982 300.055 285.694 302.36 285.694C304.427 285.694 305.901 284.317 305.901 282.169V281.237H302.597V282.169H304.884C304.855 283.728 303.829 284.711 302.36 284.711C300.75 284.711 299.513 283.491 299.513 281.237C299.513 278.984 300.75 277.764 302.292 277.764C303.546 277.764 304.397 278.471 304.766 279.611ZM307.565 285.575H308.564V281.458C308.564 280.577 309.259 279.933 310.208 279.933C310.475 279.933 310.75 279.984 310.818 280.001V278.984C310.704 278.975 310.441 278.967 310.293 278.967C309.513 278.967 308.835 279.408 308.598 280.051H308.53V279.069H307.565V285.575ZM314.448 285.711C316.21 285.711 317.396 284.372 317.396 282.356C317.396 280.323 316.21 278.984 314.448 278.984C312.686 278.984 311.5 280.323 311.5 282.356C311.5 284.372 312.686 285.711 314.448 285.711ZM314.448 284.813C313.11 284.813 312.5 283.661 312.5 282.356C312.5 281.051 313.11 279.882 314.448 279.882C315.787 279.882 316.397 281.051 316.397 282.356C316.397 283.661 315.787 284.813 314.448 284.813ZM320.175 285.575H321.158L322.581 280.577H322.683L324.106 285.575H325.089L327.072 279.069H326.021L324.615 284.033H324.547L323.174 279.069H322.107L320.718 284.05H320.65L319.243 279.069H318.193L320.175 285.575ZM331.223 279.069H329.833V277.51H328.834V279.069H327.851V279.916H328.834V283.982C328.834 285.118 329.749 285.66 330.596 285.66C330.969 285.66 331.206 285.592 331.342 285.541L331.138 284.643C331.053 284.66 330.918 284.694 330.698 284.694C330.257 284.694 329.833 284.559 329.833 283.711V279.916H331.223V279.069ZM333.866 281.661C333.866 280.526 334.591 279.882 335.578 279.882C336.518 279.882 337.086 280.475 337.086 281.509V285.575H338.085V281.441C338.085 279.768 337.196 278.984 335.866 278.984C334.84 278.984 334.256 279.412 333.951 280.085H333.866V276.9H332.867V285.575H333.866V281.661Z" fill="#8D98B4"/>
<path d="M236.545 429.235H237.179V423.101H236.545L235.39 423.791V424.494L236.545 423.799V429.235ZM238.54 429.231H242.544V428.63H239.494L241.675 426.662C241.973 426.395 242.192 426.137 242.331 425.887C242.473 425.637 242.544 425.319 242.544 424.932C242.544 424.566 242.458 424.235 242.284 423.94C242.114 423.644 241.88 423.41 241.582 423.237C241.286 423.061 240.952 422.973 240.58 422.973C240.203 422.973 239.862 423.058 239.558 423.228C239.257 423.396 239.018 423.627 238.842 423.923C238.666 424.215 238.578 424.549 238.578 424.924H239.217C239.214 424.683 239.271 424.46 239.388 424.255C239.507 424.051 239.669 423.886 239.873 423.761C240.078 423.636 240.311 423.573 240.572 423.573C240.825 423.573 241.052 423.635 241.254 423.757C241.455 423.876 241.614 424.038 241.731 424.242C241.85 424.447 241.91 424.675 241.91 424.928C241.91 425.141 241.87 425.346 241.79 425.542C241.711 425.738 241.553 425.942 241.317 426.155L238.544 428.66L238.54 429.231ZM243.48 429.235H244.115V427.02L246.373 429.235H247.284L244.848 426.935L247.003 424.634H246.168L244.115 426.85V423.101H243.484L243.48 429.235Z" fill="#A4ADC3"/>
<path d="M244.271 483.72C244.651 483.72 244.992 483.632 245.293 483.455C245.594 483.279 245.833 483.041 246.009 482.74C246.185 482.436 246.273 482.095 246.273 481.717V479.332C246.273 478.951 246.185 478.61 246.009 478.309C245.833 478.008 245.594 477.769 245.293 477.593C244.992 477.417 244.651 477.329 244.271 477.329C243.893 477.329 243.552 477.417 243.248 477.593C242.947 477.769 242.709 478.008 242.532 478.309C242.356 478.61 242.268 478.951 242.268 479.332V481.717C242.268 482.095 242.356 482.436 242.532 482.74C242.709 483.041 242.947 483.279 243.248 483.455C243.552 483.632 243.893 483.72 244.271 483.72ZM244.271 483.115C244.021 483.115 243.792 483.054 243.585 482.931C243.377 482.806 243.211 482.64 243.086 482.433C242.964 482.226 242.903 481.997 242.903 481.747V479.302C242.903 479.049 242.964 478.819 243.086 478.612C243.211 478.404 243.377 478.24 243.585 478.117C243.792 477.992 244.021 477.93 244.271 477.93C244.523 477.93 244.752 477.992 244.957 478.117C245.164 478.24 245.329 478.404 245.451 478.612C245.576 478.819 245.638 479.049 245.638 479.302V481.747C245.638 481.997 245.576 482.226 245.451 482.433C245.329 482.64 245.164 482.806 244.957 482.931C244.752 483.054 244.523 483.115 244.271 483.115Z" fill="#A4ADC3"/>
<path d="M232.586 374.875H236.591V374.274H233.54L235.722 372.306C236.02 372.039 236.239 371.78 236.378 371.53C236.52 371.28 236.591 370.962 236.591 370.576C236.591 370.21 236.504 369.879 236.331 369.583C236.161 369.288 235.926 369.054 235.628 368.88C235.333 368.704 234.999 368.616 234.627 368.616C234.249 368.616 233.908 368.702 233.604 368.872C233.303 369.04 233.065 369.271 232.889 369.566C232.713 369.859 232.625 370.193 232.625 370.568H233.264C233.261 370.326 233.318 370.103 233.434 369.899C233.553 369.694 233.715 369.529 233.92 369.404C234.124 369.28 234.357 369.217 234.618 369.217C234.871 369.217 235.098 369.278 235.3 369.4C235.502 369.52 235.661 369.681 235.777 369.886C235.896 370.09 235.956 370.319 235.956 370.572C235.956 370.785 235.916 370.989 235.837 371.185C235.757 371.381 235.6 371.586 235.364 371.799L232.59 374.304L232.586 374.875ZM239.533 375.007C239.914 375.007 240.254 374.919 240.556 374.743C240.857 374.566 241.095 374.328 241.271 374.027C241.447 373.723 241.535 373.382 241.535 373.004V370.619C241.535 370.238 241.447 369.897 241.271 369.596C241.095 369.295 240.857 369.057 240.556 368.88C240.254 368.704 239.914 368.616 239.533 368.616C239.155 368.616 238.814 368.704 238.511 368.88C238.21 369.057 237.971 369.295 237.795 369.596C237.619 369.897 237.531 370.238 237.531 370.619V373.004C237.531 373.382 237.619 373.723 237.795 374.027C237.971 374.328 238.21 374.566 238.511 374.743C238.814 374.919 239.155 375.007 239.533 375.007ZM239.533 374.402C239.283 374.402 239.054 374.341 238.847 374.219C238.64 374.094 238.474 373.927 238.349 373.72C238.227 373.513 238.166 373.284 238.166 373.034V370.589C238.166 370.336 238.227 370.106 238.349 369.899C238.474 369.691 238.64 369.527 238.847 369.404C239.054 369.28 239.283 369.217 239.533 369.217C239.786 369.217 240.014 369.28 240.219 369.404C240.426 369.527 240.591 369.691 240.713 369.899C240.838 370.106 240.901 370.336 240.901 370.589V373.034C240.901 373.284 240.838 373.513 240.713 373.72C240.591 373.927 240.426 374.094 240.219 374.219C240.014 374.341 239.786 374.402 239.533 374.402ZM242.642 374.879H243.277V372.664L245.534 374.879H246.446L244.009 372.578L246.165 370.278H245.33L243.277 372.493V368.744H242.646L242.642 374.879Z" fill="#A4ADC3"/>
<path d="M233.046 320.646C233.424 320.646 233.759 320.562 234.051 320.395C234.347 320.224 234.578 319.99 234.746 319.692C234.916 319.391 235.001 319.044 235.001 318.652C235.001 318.269 234.923 317.931 234.767 317.638C234.611 317.346 234.392 317.119 234.111 316.957C233.83 316.792 233.503 316.711 233.131 316.714L234.929 314.997V314.388H231.384V314.988H234.132L232.023 316.935L232.339 317.434C232.444 317.383 232.557 317.341 232.68 317.31C232.802 317.279 232.918 317.263 233.029 317.263C233.427 317.263 233.746 317.391 233.987 317.647C234.232 317.9 234.354 318.235 234.354 318.652C234.354 319.064 234.236 319.396 234 319.649C233.767 319.902 233.446 320.033 233.037 320.041C232.745 320.047 232.481 319.971 232.245 319.815C232.009 319.659 231.84 319.429 231.738 319.125L231.142 319.304C231.272 319.719 231.508 320.047 231.849 320.288C232.192 320.527 232.592 320.646 233.046 320.646ZM238.024 320.65C238.404 320.65 238.745 320.562 239.046 320.386C239.347 320.21 239.586 319.971 239.762 319.67C239.938 319.367 240.026 319.026 240.026 318.648V316.262C240.026 315.882 239.938 315.541 239.762 315.24C239.586 314.939 239.347 314.7 239.046 314.524C238.745 314.348 238.404 314.26 238.024 314.26C237.646 314.26 237.305 314.348 237.001 314.524C236.7 314.7 236.462 314.939 236.286 315.24C236.11 315.541 236.022 315.882 236.022 316.262V318.648C236.022 319.026 236.11 319.367 236.286 319.67C236.462 319.971 236.7 320.21 237.001 320.386C237.305 320.562 237.646 320.65 238.024 320.65ZM238.024 320.045C237.774 320.045 237.545 319.984 237.338 319.862C237.131 319.737 236.965 319.571 236.84 319.364C236.717 319.156 236.656 318.928 236.656 318.678V316.232C236.656 315.98 236.717 315.75 236.84 315.542C236.965 315.335 237.131 315.17 237.338 315.048C237.545 314.923 237.774 314.861 238.024 314.861C238.277 314.861 238.505 314.923 238.71 315.048C238.917 315.17 239.082 315.335 239.204 315.542C239.329 315.75 239.391 315.98 239.391 316.232V318.678C239.391 318.928 239.329 319.156 239.204 319.364C239.082 319.571 238.917 319.737 238.71 319.862C238.505 319.984 238.277 320.045 238.024 320.045ZM241.133 320.522H241.767V318.307L244.025 320.522H244.937L242.5 318.222L244.656 315.921H243.821L241.767 318.137V314.388H241.137L241.133 320.522Z" fill="#A4ADC3"/>
<defs>
<filter id="filter0_d_1213_9928" x="320" y="49.999" width="316" height="206" filterUnits="userSpaceOnUse" color-interpolation-filters="sRGB">
<feFlood flood-opacity="0" result="BackgroundImageFix"/>
<feColorMatrix in="SourceAlpha" type="matrix" values="0 0 0 0 0 0 0 0 0 0 0 0 0 0 0 0 0 0 127 0" result="hardAlpha"/>
<feOffset dy="12"/>
<feGaussianBlur stdDeviation="24"/>
<feColorMatrix type="matrix" values="0 0 0 0 0.0352941 0 0 0 0 0.0352941 0 0 0 0 0.333333 0 0 0 0.06 0"/>
<feBlend mode="normal" in2="BackgroundImageFix" result="effect1_dropShadow_1213_9928"/>
<feBlend mode="normal" in="SourceGraphic" in2="effect1_dropShadow_1213_9928" result="shape"/>
</filter>
<filter id="filter1_d_1213_9928" x="0" y="0" width="361" height="376" filterUnits="userSpaceOnUse" color-interpolation-filters="sRGB">
<feFlood flood-opacity="0" result="BackgroundImageFix"/>
<feColorMatrix in="SourceAlpha" type="matrix" values="0 0 0 0 0 0 0 0 0 0 0 0 0 0 0 0 0 0 127 0" result="hardAlpha"/>
<feOffset dy="12"/>
<feGaussianBlur stdDeviation="24"/>
<feColorMatrix type="matrix" values="0 0 0 0 0.0352941 0 0 0 0 0.0352941 0 0 0 0 0.333333 0 0 0 0.06 0"/>
<feBlend mode="normal" in2="BackgroundImageFix" result="effect1_dropShadow_1213_9928"/>
<feBlend mode="normal" in="SourceGraphic" in2="effect1_dropShadow_1213_9928" result="shape"/>
</filter>
<filter id="filter2_d_1213_9928" x="180" y="224.001" width="411" height="335" filterUnits="userSpaceOnUse" color-interpolation-filters="sRGB">
<feFlood flood-opacity="0" result="BackgroundImageFix"/>
<feColorMatrix in="SourceAlpha" type="matrix" values="0 0 0 0 0 0 0 0 0 0 0 0 0 0 0 0 0 0 127 0" result="hardAlpha"/>
<feOffset dy="10"/>
<feGaussianBlur stdDeviation="17.5"/>
<feColorMatrix type="matrix" values="0 0 0 0 0.278431 0 0 0 0 0.92549 0 0 0 0 0.854902 0 0 0 0.06 0"/>
<feBlend mode="normal" in2="BackgroundImageFix" result="effect1_dropShadow_1213_9928"/>
<feBlend mode="normal" in="SourceGraphic" in2="effect1_dropShadow_1213_9928" result="shape"/>
</filter>
<linearGradient id="paint0_linear_1213_9928" x1="397.554" y1="329.809" x2="397.554" y2="484.606" gradientUnits="userSpaceOnUse">
<stop stop-color="#0FE6CF"/>
<stop offset="1" stop-color="#24E9D4" stop-opacity="0"/>
</linearGradient>
</defs>
</svg>
