<svg width="92" height="54" viewBox="0 0 92 54" fill="none" xmlns="http://www.w3.org/2000/svg">
<rect y="0.5" width="92" height="53" rx="26.5" fill="#ECEEF2"/>
<g clip-path="url(#clip0_81_1004)">
<path d="M72.9645 21.8295C72.3916 21.8295 71.8684 21.6899 71.3949 21.4105C70.9214 21.1264 70.5426 20.7476 70.2585 20.2741C69.9792 19.8007 69.8395 19.2775 69.8395 18.7045C69.8395 18.1269 69.9792 17.6037 70.2585 17.1349C70.5426 16.6615 70.9214 16.285 71.3949 16.0057C71.8684 15.7216 72.3916 15.5795 72.9645 15.5795C73.5421 15.5795 74.0653 15.7216 74.5341 16.0057C75.0076 16.285 75.384 16.6615 75.6634 17.1349C75.9474 17.6037 76.0895 18.1269 76.0895 18.7045C76.0895 19.2775 75.9474 19.8007 75.6634 20.2741C75.384 20.7476 75.0076 21.1264 74.5341 21.4105C74.0653 21.6899 73.5421 21.8295 72.9645 21.8295Z" fill="#3A4252"/>
<path d="M18.4347 34.5V19.9545H21.0696V26.1122H27.8097V19.9545H30.4517V34.5H27.8097V28.321H21.0696V34.5H18.4347ZM33.3175 34.5V19.9545H35.9524V32.2912H42.3587V34.5H33.3175ZM45.0877 19.9545L48.8732 31.4034H49.0224L52.8008 19.9545H55.6985L50.5707 34.5H47.3178L42.1971 19.9545H45.0877ZM69.5675 19.9545V34.5H67.2237L60.37 24.5923H60.2493V34.5H57.6143V19.9545H59.9723L66.8189 29.8693H66.9467V19.9545H69.5675Z" fill="#3A4252"/>
</g>
<defs>
<clipPath id="clip0_81_1004">
<rect width="60" height="43" fill="white" transform="translate(18 5.5)"/>
</clipPath>
</defs>
</svg>
