<svg width="24" height="30" viewBox="0 0 24 30" fill="none" xmlns="http://www.w3.org/2000/svg">
<path fill-rule="evenodd" clip-rule="evenodd" d="M5 0.541504C2.23858 0.541504 0 2.78008 0 5.5415V24.2082C0 26.9696 2.23858 29.2082 5 29.2082H18.3333C21.0948 29.2082 23.3333 26.9696 23.3333 24.2082V5.5415C23.3333 2.78008 21.0948 0.541504 18.3333 0.541504H5ZM2 5.5415C2 3.88465 3.34315 2.5415 5 2.5415H18.3333C19.9902 2.5415 21.3333 3.88465 21.3333 5.5415V24.2082C21.3333 25.865 19.9902 27.2082 18.3333 27.2082H5C3.34315 27.2082 2 25.865 2 24.2082V5.5415ZM5 4.5415C4.44772 4.5415 4 4.98922 4 5.5415V9.5415C4 10.0938 4.44772 10.5415 5 10.5415H18.3333C18.8856 10.5415 19.3333 10.0938 19.3333 9.5415V5.5415C19.3333 4.98922 18.8856 4.5415 18.3333 4.5415H5ZM6 8.5415V6.5415H17.3333V8.5415H6ZM7.66667 14.8748C7.66667 15.6112 7.06971 16.2082 6.33333 16.2082C5.59695 16.2082 5 15.6112 5 14.8748C5 14.1385 5.59695 13.5415 6.33333 13.5415C7.06971 13.5415 7.66667 14.1385 7.66667 14.8748ZM13 14.8748C13 15.6112 12.403 16.2082 11.6667 16.2082C10.9303 16.2082 10.3333 15.6112 10.3333 14.8748C10.3333 14.1385 10.9303 13.5415 11.6667 13.5415C12.403 13.5415 13 14.1385 13 14.8748ZM17 16.2082C17.7364 16.2082 18.3333 15.6112 18.3333 14.8748C18.3333 14.1385 17.7364 13.5415 17 13.5415C16.2636 13.5415 15.6667 14.1385 15.6667 14.8748C15.6667 15.6112 16.2636 16.2082 17 16.2082ZM7.66667 18.8748C7.66667 19.6112 7.06971 20.2082 6.33333 20.2082C5.59695 20.2082 5 19.6112 5 18.8748C5 18.1385 5.59695 17.5415 6.33333 17.5415C7.06971 17.5415 7.66667 18.1385 7.66667 18.8748ZM11.6667 20.2082C12.403 20.2082 13 19.6112 13 18.8748C13 18.1385 12.403 17.5415 11.6667 17.5415C10.9303 17.5415 10.3333 18.1385 10.3333 18.8748C10.3333 19.6112 10.9303 20.2082 11.6667 20.2082ZM18.3333 18.8748C18.3333 19.6112 17.7364 20.2082 17 20.2082C16.2636 20.2082 15.6667 19.6112 15.6667 18.8748C15.6667 18.1385 16.2636 17.5415 17 17.5415C17.7364 17.5415 18.3333 18.1385 18.3333 18.8748ZM6.33333 24.2082C7.06971 24.2082 7.66667 23.6112 7.66667 22.8748C7.66667 22.1385 7.06971 21.5415 6.33333 21.5415C5.59695 21.5415 5 22.1385 5 22.8748C5 23.6112 5.59695 24.2082 6.33333 24.2082ZM13 22.8748C13 23.6112 12.403 24.2082 11.6667 24.2082C10.9303 24.2082 10.3333 23.6112 10.3333 22.8748C10.3333 22.1385 10.9303 21.5415 11.6667 21.5415C12.403 21.5415 13 22.1385 13 22.8748ZM17 24.2082C17.7364 24.2082 18.3333 23.6112 18.3333 22.8748C18.3333 22.1385 17.7364 21.5415 17 21.5415C16.2636 21.5415 15.6667 22.1385 15.6667 22.8748C15.6667 23.6112 16.2636 24.2082 17 24.2082Z" fill="white"/>
</svg>
