<svg width="21" height="20" viewBox="0 0 21 20" fill="none" xmlns="http://www.w3.org/2000/svg">
<path d="M18.1943 8.33342H3.19434M14.0277 1.66675V5.00008M7.361 1.66675V5.00008M7.19434 18.3334H14.1943C15.5945 18.3334 16.2945 18.3334 16.8293 18.0609C17.2997 17.8212 17.6822 17.4388 17.9219 16.9684C18.1943 16.4336 18.1943 15.7335 18.1943 14.3334V7.33342C18.1943 5.93328 18.1943 5.23322 17.9219 4.69844C17.6822 4.22803 17.2997 3.84558 16.8293 3.6059C16.2945 3.33341 15.5945 3.33341 14.1943 3.33341H7.19434C5.7942 3.33341 5.09414 3.33341 4.55936 3.6059C4.08895 3.84558 3.7065 4.22803 3.46682 4.69844C3.19434 5.23322 3.19434 5.93328 3.19434 7.33341V14.3334C3.19434 15.7335 3.19434 16.4336 3.46682 16.9684C3.7065 17.4388 4.08895 17.8212 4.55936 18.0609C5.09414 18.3334 5.7942 18.3334 7.19434 18.3334Z" stroke="" stroke-width="1.5" stroke-linecap="round" stroke-linejoin="round"/>
</svg>
