<svg width="23" height="18" viewBox="0 0 23 18" fill="none" xmlns="http://www.w3.org/2000/svg">
<path d="M16.9072 7.74439C18.5096 7.74439 19.8094 6.44548 19.8094 4.84314C19.8094 3.24081 18.5096 1.94189 16.9072 1.94189" stroke="white" stroke-width="1.5" stroke-linecap="round" stroke-linejoin="round"/>
<path d="M18.2412 10.8975C18.7197 10.9305 19.1955 10.9983 19.6639 11.1037C20.3147 11.2311 21.0975 11.4979 21.3762 12.0818C21.554 12.4558 21.554 12.8912 21.3762 13.2661C21.0985 13.85 20.3147 14.1159 19.6639 14.2497" stroke="white" stroke-width="1.5" stroke-linecap="round" stroke-linejoin="round"/>
<path d="M5.60236 7.74439C4.00003 7.74439 2.7002 6.44548 2.7002 4.84314C2.7002 3.24081 4.00003 1.94189 5.60236 1.94189" stroke="white" stroke-width="1.5" stroke-linecap="round" stroke-linejoin="round"/>
<path d="M4.26815 10.8975C3.78965 10.9305 3.3139 10.9983 2.84548 11.1037C2.19465 11.2311 1.41181 11.4979 1.13406 12.0818C0.955313 12.4558 0.955313 12.8912 1.13406 13.2661C1.4109 13.85 2.19465 14.1159 2.84548 14.2497" stroke="white" stroke-width="1.5" stroke-linecap="round" stroke-linejoin="round"/>
<path fill-rule="evenodd" clip-rule="evenodd" d="M11.2502 11.522C14.497 11.522 17.2708 12.0133 17.2708 13.9796C17.2708 15.9449 14.5153 16.4546 11.2502 16.4546C8.00241 16.4546 5.22949 15.9632 5.22949 13.997C5.22949 12.0307 7.98499 11.522 11.2502 11.522Z" stroke="white" stroke-width="1.5" stroke-linecap="round" stroke-linejoin="round"/>
<path fill-rule="evenodd" clip-rule="evenodd" d="M11.2503 8.71742C9.10901 8.71742 7.39209 7.0005 7.39209 4.85825C7.39209 2.71692 9.10901 1 11.2503 1C13.3917 1 15.1086 2.71692 15.1086 4.85825C15.1086 7.0005 13.3917 8.71742 11.2503 8.71742Z" stroke="white" stroke-width="1.5" stroke-linecap="round" stroke-linejoin="round"/>
</svg>
