<svg width="18" height="16" viewBox="0 0 18 16" fill="none" xmlns="http://www.w3.org/2000/svg">
<path d="M8.25 10.25H6C4.60218 10.25 3.90326 10.25 3.35195 10.4784C2.61687 10.7828 2.03284 11.3669 1.72836 12.1019C1.5 12.6533 1.5 13.3522 1.5 14.75M11.625 1.46807C12.7244 1.91311 13.5 2.99098 13.5 4.25M8.9999 15.125L10.5187 14.8213C10.6511 14.7948 10.7174 14.7815 10.7791 14.7573C10.8339 14.7358 10.886 14.7079 10.9343 14.6743C10.9887 14.6363 11.0364 14.5886 11.1319 14.4931L16.125 9.50004C16.5393 9.08581 16.5393 8.4142 16.125 7.99998C15.7108 7.58577 15.0392 7.58578 14.625 8L9.63189 12.9931C9.53641 13.0886 9.48866 13.1363 9.45073 13.1907C9.41705 13.239 9.38918 13.2911 9.36768 13.3459C9.34347 13.4076 9.33022 13.4738 9.30373 13.6062L8.9999 15.125ZM10.125 4.25C10.125 5.90685 8.78185 7.25 7.125 7.25C5.46815 7.25 4.125 5.90685 4.125 4.25C4.125 2.59315 5.46815 1.25 7.125 1.25C8.78185 1.25 10.125 2.59315 10.125 4.25Z" stroke="#0A5D7F" stroke-width="1.5" stroke-linecap="round" stroke-linejoin="round"/>
</svg>
